G04 #@! TF.GenerationSoftware,KiCad,Pcbnew,(5.1.6)-1*
G04 #@! TF.CreationDate,2020-12-02T16:01:19+01:00*
G04 #@! TF.ProjectId,TapeXUM,54617065-5855-44d2-9e6b-696361645f70,rev?*
G04 #@! TF.SameCoordinates,Original*
G04 #@! TF.FileFunction,Legend,Bot*
G04 #@! TF.FilePolarity,Positive*
%FSLAX46Y46*%
G04 Gerber Fmt 4.6, Leading zero omitted, Abs format (unit mm)*
G04 Created by KiCad (PCBNEW (5.1.6)-1) date 2020-12-02 16:01:19*
%MOMM*%
%LPD*%
G01*
G04 APERTURE LIST*
%ADD10C,0.125000*%
G04 APERTURE END LIST*
D10*
X34479904Y-16827480D02*
X33908476Y-16827480D01*
X34194190Y-17827480D02*
X34194190Y-16827480D01*
X33146571Y-17827480D02*
X33146571Y-17303671D01*
X33194190Y-17208433D01*
X33289428Y-17160814D01*
X33479904Y-17160814D01*
X33575142Y-17208433D01*
X33146571Y-17779861D02*
X33241809Y-17827480D01*
X33479904Y-17827480D01*
X33575142Y-17779861D01*
X33622761Y-17684623D01*
X33622761Y-17589385D01*
X33575142Y-17494147D01*
X33479904Y-17446528D01*
X33241809Y-17446528D01*
X33146571Y-17398909D01*
X32670380Y-17160814D02*
X32670380Y-18160814D01*
X32670380Y-17208433D02*
X32575142Y-17160814D01*
X32384666Y-17160814D01*
X32289428Y-17208433D01*
X32241809Y-17256052D01*
X32194190Y-17351290D01*
X32194190Y-17637004D01*
X32241809Y-17732242D01*
X32289428Y-17779861D01*
X32384666Y-17827480D01*
X32575142Y-17827480D01*
X32670380Y-17779861D01*
X31384666Y-17779861D02*
X31479904Y-17827480D01*
X31670380Y-17827480D01*
X31765619Y-17779861D01*
X31813238Y-17684623D01*
X31813238Y-17303671D01*
X31765619Y-17208433D01*
X31670380Y-17160814D01*
X31479904Y-17160814D01*
X31384666Y-17208433D01*
X31337047Y-17303671D01*
X31337047Y-17398909D01*
X31813238Y-17494147D01*
X31003714Y-16827480D02*
X30337047Y-17827480D01*
X30337047Y-16827480D02*
X31003714Y-17827480D01*
X29956095Y-16827480D02*
X29956095Y-17637004D01*
X29908476Y-17732242D01*
X29860857Y-17779861D01*
X29765619Y-17827480D01*
X29575142Y-17827480D01*
X29479904Y-17779861D01*
X29432285Y-17732242D01*
X29384666Y-17637004D01*
X29384666Y-16827480D01*
X28908476Y-17827480D02*
X28908476Y-16827480D01*
X28575142Y-17541766D01*
X28241809Y-16827480D01*
X28241809Y-17827480D01*
X26479904Y-17827480D02*
X27051333Y-17827480D01*
X26765619Y-17827480D02*
X26765619Y-16827480D01*
X26860857Y-16970338D01*
X26956095Y-17065576D01*
X27051333Y-17113195D01*
X26051333Y-17732242D02*
X26003714Y-17779861D01*
X26051333Y-17827480D01*
X26098952Y-17779861D01*
X26051333Y-17732242D01*
X26051333Y-17827480D01*
X25384666Y-16827480D02*
X25289428Y-16827480D01*
X25194190Y-16875100D01*
X25146571Y-16922719D01*
X25098952Y-17017957D01*
X25051333Y-17208433D01*
X25051333Y-17446528D01*
X25098952Y-17637004D01*
X25146571Y-17732242D01*
X25194190Y-17779861D01*
X25289428Y-17827480D01*
X25384666Y-17827480D01*
X25479904Y-17779861D01*
X25527523Y-17732242D01*
X25575142Y-17637004D01*
X25622761Y-17446528D01*
X25622761Y-17208433D01*
X25575142Y-17017957D01*
X25527523Y-16922719D01*
X25479904Y-16875100D01*
X25384666Y-16827480D01*
X35884666Y-19452480D02*
X35884666Y-18452480D01*
X35503714Y-18452480D01*
X35408476Y-18500100D01*
X35360857Y-18547719D01*
X35313238Y-18642957D01*
X35313238Y-18785814D01*
X35360857Y-18881052D01*
X35408476Y-18928671D01*
X35503714Y-18976290D01*
X35884666Y-18976290D01*
X34313238Y-19357242D02*
X34360857Y-19404861D01*
X34503714Y-19452480D01*
X34598952Y-19452480D01*
X34741809Y-19404861D01*
X34837047Y-19309623D01*
X34884666Y-19214385D01*
X34932285Y-19023909D01*
X34932285Y-18881052D01*
X34884666Y-18690576D01*
X34837047Y-18595338D01*
X34741809Y-18500100D01*
X34598952Y-18452480D01*
X34503714Y-18452480D01*
X34360857Y-18500100D01*
X34313238Y-18547719D01*
X33551333Y-18928671D02*
X33408476Y-18976290D01*
X33360857Y-19023909D01*
X33313238Y-19119147D01*
X33313238Y-19262004D01*
X33360857Y-19357242D01*
X33408476Y-19404861D01*
X33503714Y-19452480D01*
X33884666Y-19452480D01*
X33884666Y-18452480D01*
X33551333Y-18452480D01*
X33456095Y-18500100D01*
X33408476Y-18547719D01*
X33360857Y-18642957D01*
X33360857Y-18738195D01*
X33408476Y-18833433D01*
X33456095Y-18881052D01*
X33551333Y-18928671D01*
X33884666Y-18928671D01*
X31694190Y-19452480D02*
X31694190Y-18452480D01*
X31694190Y-19404861D02*
X31789428Y-19452480D01*
X31979904Y-19452480D01*
X32075142Y-19404861D01*
X32122761Y-19357242D01*
X32170380Y-19262004D01*
X32170380Y-18976290D01*
X32122761Y-18881052D01*
X32075142Y-18833433D01*
X31979904Y-18785814D01*
X31789428Y-18785814D01*
X31694190Y-18833433D01*
X30837047Y-19404861D02*
X30932285Y-19452480D01*
X31122761Y-19452480D01*
X31218000Y-19404861D01*
X31265619Y-19309623D01*
X31265619Y-18928671D01*
X31218000Y-18833433D01*
X31122761Y-18785814D01*
X30932285Y-18785814D01*
X30837047Y-18833433D01*
X30789428Y-18928671D01*
X30789428Y-19023909D01*
X31265619Y-19119147D01*
X30408476Y-19404861D02*
X30313238Y-19452480D01*
X30122761Y-19452480D01*
X30027523Y-19404861D01*
X29979904Y-19309623D01*
X29979904Y-19262004D01*
X30027523Y-19166766D01*
X30122761Y-19119147D01*
X30265619Y-19119147D01*
X30360857Y-19071528D01*
X30408476Y-18976290D01*
X30408476Y-18928671D01*
X30360857Y-18833433D01*
X30265619Y-18785814D01*
X30122761Y-18785814D01*
X30027523Y-18833433D01*
X29551333Y-19452480D02*
X29551333Y-18785814D01*
X29551333Y-18452480D02*
X29598952Y-18500100D01*
X29551333Y-18547719D01*
X29503714Y-18500100D01*
X29551333Y-18452480D01*
X29551333Y-18547719D01*
X28646571Y-18785814D02*
X28646571Y-19595338D01*
X28694190Y-19690576D01*
X28741809Y-19738195D01*
X28837047Y-19785814D01*
X28979904Y-19785814D01*
X29075142Y-19738195D01*
X28646571Y-19404861D02*
X28741809Y-19452480D01*
X28932285Y-19452480D01*
X29027523Y-19404861D01*
X29075142Y-19357242D01*
X29122761Y-19262004D01*
X29122761Y-18976290D01*
X29075142Y-18881052D01*
X29027523Y-18833433D01*
X28932285Y-18785814D01*
X28741809Y-18785814D01*
X28646571Y-18833433D01*
X28170380Y-18785814D02*
X28170380Y-19452480D01*
X28170380Y-18881052D02*
X28122761Y-18833433D01*
X28027523Y-18785814D01*
X27884666Y-18785814D01*
X27789428Y-18833433D01*
X27741809Y-18928671D01*
X27741809Y-19452480D01*
X26884666Y-19404861D02*
X26979904Y-19452480D01*
X27170380Y-19452480D01*
X27265619Y-19404861D01*
X27313238Y-19309623D01*
X27313238Y-18928671D01*
X27265619Y-18833433D01*
X27170380Y-18785814D01*
X26979904Y-18785814D01*
X26884666Y-18833433D01*
X26837047Y-18928671D01*
X26837047Y-19023909D01*
X27313238Y-19119147D01*
X25979904Y-19452480D02*
X25979904Y-18452480D01*
X25979904Y-19404861D02*
X26075142Y-19452480D01*
X26265619Y-19452480D01*
X26360857Y-19404861D01*
X26408476Y-19357242D01*
X26456095Y-19262004D01*
X26456095Y-18976290D01*
X26408476Y-18881052D01*
X26360857Y-18833433D01*
X26265619Y-18785814D01*
X26075142Y-18785814D01*
X25979904Y-18833433D01*
X24741809Y-19452480D02*
X24741809Y-18452480D01*
X24741809Y-18833433D02*
X24646571Y-18785814D01*
X24456095Y-18785814D01*
X24360857Y-18833433D01*
X24313238Y-18881052D01*
X24265619Y-18976290D01*
X24265619Y-19262004D01*
X24313238Y-19357242D01*
X24360857Y-19404861D01*
X24456095Y-19452480D01*
X24646571Y-19452480D01*
X24741809Y-19404861D01*
X23932285Y-18785814D02*
X23694190Y-19452480D01*
X23456095Y-18785814D02*
X23694190Y-19452480D01*
X23789428Y-19690576D01*
X23837047Y-19738195D01*
X23932285Y-19785814D01*
X43694190Y-21077480D02*
X43694190Y-20077480D01*
X43456095Y-20077480D01*
X43313238Y-20125100D01*
X43218000Y-20220338D01*
X43170380Y-20315576D01*
X43122761Y-20506052D01*
X43122761Y-20648909D01*
X43170380Y-20839385D01*
X43218000Y-20934623D01*
X43313238Y-21029861D01*
X43456095Y-21077480D01*
X43694190Y-21077480D01*
X42265619Y-21077480D02*
X42265619Y-20553671D01*
X42313238Y-20458433D01*
X42408476Y-20410814D01*
X42598952Y-20410814D01*
X42694190Y-20458433D01*
X42265619Y-21029861D02*
X42360857Y-21077480D01*
X42598952Y-21077480D01*
X42694190Y-21029861D01*
X42741809Y-20934623D01*
X42741809Y-20839385D01*
X42694190Y-20744147D01*
X42598952Y-20696528D01*
X42360857Y-20696528D01*
X42265619Y-20648909D01*
X41789428Y-21077480D02*
X41789428Y-20410814D01*
X41789428Y-20506052D02*
X41741809Y-20458433D01*
X41646571Y-20410814D01*
X41503714Y-20410814D01*
X41408476Y-20458433D01*
X41360857Y-20553671D01*
X41360857Y-21077480D01*
X41360857Y-20553671D02*
X41313238Y-20458433D01*
X41218000Y-20410814D01*
X41075142Y-20410814D01*
X40979904Y-20458433D01*
X40932285Y-20553671D01*
X40932285Y-21077480D01*
X40456095Y-21077480D02*
X40456095Y-20410814D01*
X40456095Y-20077480D02*
X40503714Y-20125100D01*
X40456095Y-20172719D01*
X40408476Y-20125100D01*
X40456095Y-20077480D01*
X40456095Y-20172719D01*
X39551333Y-21077480D02*
X39551333Y-20553671D01*
X39598952Y-20458433D01*
X39694190Y-20410814D01*
X39884666Y-20410814D01*
X39979904Y-20458433D01*
X39551333Y-21029861D02*
X39646571Y-21077480D01*
X39884666Y-21077480D01*
X39979904Y-21029861D01*
X40027523Y-20934623D01*
X40027523Y-20839385D01*
X39979904Y-20744147D01*
X39884666Y-20696528D01*
X39646571Y-20696528D01*
X39551333Y-20648909D01*
X39075142Y-20410814D02*
X39075142Y-21077480D01*
X39075142Y-20506052D02*
X39027523Y-20458433D01*
X38932285Y-20410814D01*
X38789428Y-20410814D01*
X38694190Y-20458433D01*
X38646571Y-20553671D01*
X38646571Y-21077480D01*
X37503714Y-20077480D02*
X37265619Y-21077480D01*
X37075142Y-20363195D01*
X36884666Y-21077480D01*
X36646571Y-20077480D01*
X36122761Y-21077480D02*
X36218000Y-21029861D01*
X36265619Y-20982242D01*
X36313238Y-20887004D01*
X36313238Y-20601290D01*
X36265619Y-20506052D01*
X36218000Y-20458433D01*
X36122761Y-20410814D01*
X35979904Y-20410814D01*
X35884666Y-20458433D01*
X35837047Y-20506052D01*
X35789428Y-20601290D01*
X35789428Y-20887004D01*
X35837047Y-20982242D01*
X35884666Y-21029861D01*
X35979904Y-21077480D01*
X36122761Y-21077480D01*
X35360857Y-21077480D02*
X35360857Y-20410814D01*
X35360857Y-20601290D02*
X35313238Y-20506052D01*
X35265619Y-20458433D01*
X35170380Y-20410814D01*
X35075142Y-20410814D01*
X34598952Y-21077480D02*
X34694190Y-21029861D01*
X34741809Y-20982242D01*
X34789428Y-20887004D01*
X34789428Y-20601290D01*
X34741809Y-20506052D01*
X34694190Y-20458433D01*
X34598952Y-20410814D01*
X34456095Y-20410814D01*
X34360857Y-20458433D01*
X34313238Y-20506052D01*
X34265619Y-20601290D01*
X34265619Y-20887004D01*
X34313238Y-20982242D01*
X34360857Y-21029861D01*
X34456095Y-21077480D01*
X34598952Y-21077480D01*
X33408476Y-21029861D02*
X33503714Y-21077480D01*
X33694190Y-21077480D01*
X33789428Y-21029861D01*
X33837047Y-20982242D01*
X33884666Y-20887004D01*
X33884666Y-20601290D01*
X33837047Y-20506052D01*
X33789428Y-20458433D01*
X33694190Y-20410814D01*
X33503714Y-20410814D01*
X33408476Y-20458433D01*
X32979904Y-21077480D02*
X32979904Y-20077480D01*
X32551333Y-21077480D02*
X32551333Y-20553671D01*
X32598952Y-20458433D01*
X32694190Y-20410814D01*
X32837047Y-20410814D01*
X32932285Y-20458433D01*
X32979904Y-20506052D01*
X30884666Y-21077480D02*
X30884666Y-20553671D01*
X30932285Y-20458433D01*
X31027523Y-20410814D01*
X31218000Y-20410814D01*
X31313238Y-20458433D01*
X30884666Y-21029861D02*
X30979904Y-21077480D01*
X31218000Y-21077480D01*
X31313238Y-21029861D01*
X31360857Y-20934623D01*
X31360857Y-20839385D01*
X31313238Y-20744147D01*
X31218000Y-20696528D01*
X30979904Y-20696528D01*
X30884666Y-20648909D01*
X30408476Y-21077480D02*
X30408476Y-20077480D01*
X30313238Y-20696528D02*
X30027523Y-21077480D01*
X30027523Y-20410814D02*
X30408476Y-20791766D01*
X29170380Y-21077480D02*
X29170380Y-20553671D01*
X29218000Y-20458433D01*
X29313238Y-20410814D01*
X29503714Y-20410814D01*
X29598952Y-20458433D01*
X29170380Y-21029861D02*
X29265619Y-21077480D01*
X29503714Y-21077480D01*
X29598952Y-21029861D01*
X29646571Y-20934623D01*
X29646571Y-20839385D01*
X29598952Y-20744147D01*
X29503714Y-20696528D01*
X29265619Y-20696528D01*
X29170380Y-20648909D01*
X27932285Y-21077480D02*
X27932285Y-20410814D01*
X27932285Y-20601290D02*
X27884666Y-20506052D01*
X27837047Y-20458433D01*
X27741809Y-20410814D01*
X27646571Y-20410814D01*
X27313238Y-21077480D02*
X27313238Y-20410814D01*
X27313238Y-20077480D02*
X27360857Y-20125100D01*
X27313238Y-20172719D01*
X27265619Y-20125100D01*
X27313238Y-20077480D01*
X27313238Y-20172719D01*
X26837047Y-21077480D02*
X26837047Y-20410814D01*
X26837047Y-20506052D02*
X26789428Y-20458433D01*
X26694190Y-20410814D01*
X26551333Y-20410814D01*
X26456095Y-20458433D01*
X26408476Y-20553671D01*
X26408476Y-21077480D01*
X26408476Y-20553671D02*
X26360857Y-20458433D01*
X26265619Y-20410814D01*
X26122761Y-20410814D01*
X26027523Y-20458433D01*
X25979904Y-20553671D01*
X25979904Y-21077480D01*
X25122761Y-21029861D02*
X25218000Y-21077480D01*
X25408476Y-21077480D01*
X25503714Y-21029861D01*
X25551333Y-20934623D01*
X25551333Y-20553671D01*
X25503714Y-20458433D01*
X25408476Y-20410814D01*
X25218000Y-20410814D01*
X25122761Y-20458433D01*
X25075142Y-20553671D01*
X25075142Y-20648909D01*
X25551333Y-20744147D01*
X23932285Y-20029861D02*
X24789428Y-21315576D01*
X23265619Y-20553671D02*
X23598952Y-20553671D01*
X23598952Y-21077480D02*
X23598952Y-20077480D01*
X23122761Y-20077480D01*
X22313238Y-21077480D02*
X22313238Y-20553671D01*
X22360857Y-20458433D01*
X22456095Y-20410814D01*
X22646571Y-20410814D01*
X22741809Y-20458433D01*
X22313238Y-21029861D02*
X22408476Y-21077480D01*
X22646571Y-21077480D01*
X22741809Y-21029861D01*
X22789428Y-20934623D01*
X22789428Y-20839385D01*
X22741809Y-20744147D01*
X22646571Y-20696528D01*
X22408476Y-20696528D01*
X22313238Y-20648909D01*
X21837047Y-20410814D02*
X21837047Y-21077480D01*
X21837047Y-20506052D02*
X21789428Y-20458433D01*
X21694190Y-20410814D01*
X21551333Y-20410814D01*
X21456095Y-20458433D01*
X21408476Y-20553671D01*
X21408476Y-21077480D01*
X20503714Y-21029861D02*
X20598952Y-21077480D01*
X20789428Y-21077480D01*
X20884666Y-21029861D01*
X20932285Y-20982242D01*
X20979904Y-20887004D01*
X20979904Y-20601290D01*
X20932285Y-20506052D01*
X20884666Y-20458433D01*
X20789428Y-20410814D01*
X20598952Y-20410814D01*
X20503714Y-20458433D01*
X20170380Y-20410814D02*
X19932285Y-21077480D01*
X19694190Y-20410814D02*
X19932285Y-21077480D01*
X20027523Y-21315576D01*
X20075142Y-21363195D01*
X20170380Y-21410814D01*
X17979904Y-21077480D02*
X18313238Y-20601290D01*
X18551333Y-21077480D02*
X18551333Y-20077480D01*
X18170380Y-20077480D01*
X18075142Y-20125100D01*
X18027523Y-20172719D01*
X17979904Y-20267957D01*
X17979904Y-20410814D01*
X18027523Y-20506052D01*
X18075142Y-20553671D01*
X18170380Y-20601290D01*
X18551333Y-20601290D01*
X17122761Y-21077480D02*
X17122761Y-20553671D01*
X17170380Y-20458433D01*
X17265619Y-20410814D01*
X17456095Y-20410814D01*
X17551333Y-20458433D01*
X17122761Y-21029861D02*
X17218000Y-21077480D01*
X17456095Y-21077480D01*
X17551333Y-21029861D01*
X17598952Y-20934623D01*
X17598952Y-20839385D01*
X17551333Y-20744147D01*
X17456095Y-20696528D01*
X17218000Y-20696528D01*
X17122761Y-20648909D01*
X16789428Y-20410814D02*
X16408476Y-20410814D01*
X16646571Y-20077480D02*
X16646571Y-20934623D01*
X16598952Y-21029861D01*
X16503714Y-21077480D01*
X16408476Y-21077480D01*
X16122761Y-21029861D02*
X16027523Y-21077480D01*
X15837047Y-21077480D01*
X15741809Y-21029861D01*
X15694190Y-20934623D01*
X15694190Y-20887004D01*
X15741809Y-20791766D01*
X15837047Y-20744147D01*
X15979904Y-20744147D01*
X16075142Y-20696528D01*
X16122761Y-20601290D01*
X16122761Y-20553671D01*
X16075142Y-20458433D01*
X15979904Y-20410814D01*
X15837047Y-20410814D01*
X15741809Y-20458433D01*
X42765619Y-23803671D02*
X42622761Y-23851290D01*
X42575142Y-23898909D01*
X42527523Y-23994147D01*
X42527523Y-24137004D01*
X42575142Y-24232242D01*
X42622761Y-24279861D01*
X42718000Y-24327480D01*
X43098952Y-24327480D01*
X43098952Y-23327480D01*
X42765619Y-23327480D01*
X42670380Y-23375100D01*
X42622761Y-23422719D01*
X42575142Y-23517957D01*
X42575142Y-23613195D01*
X42622761Y-23708433D01*
X42670380Y-23756052D01*
X42765619Y-23803671D01*
X43098952Y-23803671D01*
X41670380Y-24327480D02*
X41670380Y-23803671D01*
X41718000Y-23708433D01*
X41813238Y-23660814D01*
X42003714Y-23660814D01*
X42098952Y-23708433D01*
X41670380Y-24279861D02*
X41765619Y-24327480D01*
X42003714Y-24327480D01*
X42098952Y-24279861D01*
X42146571Y-24184623D01*
X42146571Y-24089385D01*
X42098952Y-23994147D01*
X42003714Y-23946528D01*
X41765619Y-23946528D01*
X41670380Y-23898909D01*
X41241809Y-24279861D02*
X41146571Y-24327480D01*
X40956095Y-24327480D01*
X40860857Y-24279861D01*
X40813238Y-24184623D01*
X40813238Y-24137004D01*
X40860857Y-24041766D01*
X40956095Y-23994147D01*
X41098952Y-23994147D01*
X41194190Y-23946528D01*
X41241809Y-23851290D01*
X41241809Y-23803671D01*
X41194190Y-23708433D01*
X41098952Y-23660814D01*
X40956095Y-23660814D01*
X40860857Y-23708433D01*
X40003714Y-24279861D02*
X40098952Y-24327480D01*
X40289428Y-24327480D01*
X40384666Y-24279861D01*
X40432285Y-24184623D01*
X40432285Y-23803671D01*
X40384666Y-23708433D01*
X40289428Y-23660814D01*
X40098952Y-23660814D01*
X40003714Y-23708433D01*
X39956095Y-23803671D01*
X39956095Y-23898909D01*
X40432285Y-23994147D01*
X39098952Y-24327480D02*
X39098952Y-23327480D01*
X39098952Y-24279861D02*
X39194190Y-24327480D01*
X39384666Y-24327480D01*
X39479904Y-24279861D01*
X39527523Y-24232242D01*
X39575142Y-24137004D01*
X39575142Y-23851290D01*
X39527523Y-23756052D01*
X39479904Y-23708433D01*
X39384666Y-23660814D01*
X39194190Y-23660814D01*
X39098952Y-23708433D01*
X37718000Y-24327480D02*
X37813238Y-24279861D01*
X37860857Y-24232242D01*
X37908476Y-24137004D01*
X37908476Y-23851290D01*
X37860857Y-23756052D01*
X37813238Y-23708433D01*
X37718000Y-23660814D01*
X37575142Y-23660814D01*
X37479904Y-23708433D01*
X37432285Y-23756052D01*
X37384666Y-23851290D01*
X37384666Y-24137004D01*
X37432285Y-24232242D01*
X37479904Y-24279861D01*
X37575142Y-24327480D01*
X37718000Y-24327480D01*
X36956095Y-23660814D02*
X36956095Y-24327480D01*
X36956095Y-23756052D02*
X36908476Y-23708433D01*
X36813238Y-23660814D01*
X36670380Y-23660814D01*
X36575142Y-23708433D01*
X36527523Y-23803671D01*
X36527523Y-24327480D01*
X35384666Y-23327480D02*
X34718000Y-23327480D01*
X35384666Y-24327480D01*
X34718000Y-24327480D01*
X34194190Y-24327480D02*
X34289428Y-24279861D01*
X34337047Y-24232242D01*
X34384666Y-24137004D01*
X34384666Y-23851290D01*
X34337047Y-23756052D01*
X34289428Y-23708433D01*
X34194190Y-23660814D01*
X34051333Y-23660814D01*
X33956095Y-23708433D01*
X33908476Y-23756052D01*
X33860857Y-23851290D01*
X33860857Y-24137004D01*
X33908476Y-24232242D01*
X33956095Y-24279861D01*
X34051333Y-24327480D01*
X34194190Y-24327480D01*
X33289428Y-24327480D02*
X33384666Y-24279861D01*
X33432285Y-24232242D01*
X33479904Y-24137004D01*
X33479904Y-23851290D01*
X33432285Y-23756052D01*
X33384666Y-23708433D01*
X33289428Y-23660814D01*
X33146571Y-23660814D01*
X33051333Y-23708433D01*
X33003714Y-23756052D01*
X32956095Y-23851290D01*
X32956095Y-24137004D01*
X33003714Y-24232242D01*
X33051333Y-24279861D01*
X33146571Y-24327480D01*
X33289428Y-24327480D01*
X32527523Y-24327480D02*
X32527523Y-23660814D01*
X32527523Y-23756052D02*
X32479904Y-23708433D01*
X32384666Y-23660814D01*
X32241809Y-23660814D01*
X32146571Y-23708433D01*
X32098952Y-23803671D01*
X32098952Y-24327480D01*
X32098952Y-23803671D02*
X32051333Y-23708433D01*
X31956095Y-23660814D01*
X31813238Y-23660814D01*
X31718000Y-23708433D01*
X31670380Y-23803671D01*
X31670380Y-24327480D01*
X31337047Y-23327480D02*
X30765619Y-23327480D01*
X31051333Y-24327480D02*
X31051333Y-23327480D01*
X30003714Y-24327480D02*
X30003714Y-23803671D01*
X30051333Y-23708433D01*
X30146571Y-23660814D01*
X30337047Y-23660814D01*
X30432285Y-23708433D01*
X30003714Y-24279861D02*
X30098952Y-24327480D01*
X30337047Y-24327480D01*
X30432285Y-24279861D01*
X30479904Y-24184623D01*
X30479904Y-24089385D01*
X30432285Y-23994147D01*
X30337047Y-23946528D01*
X30098952Y-23946528D01*
X30003714Y-23898909D01*
X29527523Y-23660814D02*
X29527523Y-24660814D01*
X29527523Y-23708433D02*
X29432285Y-23660814D01*
X29241809Y-23660814D01*
X29146571Y-23708433D01*
X29098952Y-23756052D01*
X29051333Y-23851290D01*
X29051333Y-24137004D01*
X29098952Y-24232242D01*
X29146571Y-24279861D01*
X29241809Y-24327480D01*
X29432285Y-24327480D01*
X29527523Y-24279861D01*
X28241809Y-24279861D02*
X28337047Y-24327480D01*
X28527523Y-24327480D01*
X28622761Y-24279861D01*
X28670380Y-24184623D01*
X28670380Y-23803671D01*
X28622761Y-23708433D01*
X28527523Y-23660814D01*
X28337047Y-23660814D01*
X28241809Y-23708433D01*
X28194190Y-23803671D01*
X28194190Y-23898909D01*
X28670380Y-23994147D01*
X27003714Y-24327480D02*
X27003714Y-23327480D01*
X27003714Y-23708433D02*
X26908476Y-23660814D01*
X26718000Y-23660814D01*
X26622761Y-23708433D01*
X26575142Y-23756052D01*
X26527523Y-23851290D01*
X26527523Y-24137004D01*
X26575142Y-24232242D01*
X26622761Y-24279861D01*
X26718000Y-24327480D01*
X26908476Y-24327480D01*
X27003714Y-24279861D01*
X26194190Y-23660814D02*
X25956095Y-24327480D01*
X25718000Y-23660814D02*
X25956095Y-24327480D01*
X26051333Y-24565576D01*
X26098952Y-24613195D01*
X26194190Y-24660814D01*
X24622761Y-24041766D02*
X24146571Y-24041766D01*
X24718000Y-24327480D02*
X24384666Y-23327480D01*
X24051333Y-24327480D01*
X23718000Y-24327480D02*
X23718000Y-23660814D01*
X23718000Y-23851290D02*
X23670380Y-23756052D01*
X23622761Y-23708433D01*
X23527523Y-23660814D01*
X23432285Y-23660814D01*
X23098952Y-23660814D02*
X23098952Y-24327480D01*
X23098952Y-23756052D02*
X23051333Y-23708433D01*
X22956095Y-23660814D01*
X22813238Y-23660814D01*
X22718000Y-23708433D01*
X22670380Y-23803671D01*
X22670380Y-24327480D01*
X21765619Y-24327480D02*
X21765619Y-23327480D01*
X21765619Y-24279861D02*
X21860857Y-24327480D01*
X22051333Y-24327480D01*
X22146571Y-24279861D01*
X22194190Y-24232242D01*
X22241809Y-24137004D01*
X22241809Y-23851290D01*
X22194190Y-23756052D01*
X22146571Y-23708433D01*
X22051333Y-23660814D01*
X21860857Y-23660814D01*
X21765619Y-23708433D01*
X20527523Y-24327480D02*
X20527523Y-23327480D01*
X20194190Y-24041766D01*
X19860857Y-23327480D01*
X19860857Y-24327480D01*
X19003714Y-24279861D02*
X19098952Y-24327480D01*
X19289428Y-24327480D01*
X19384666Y-24279861D01*
X19432285Y-24184623D01*
X19432285Y-23803671D01*
X19384666Y-23708433D01*
X19289428Y-23660814D01*
X19098952Y-23660814D01*
X19003714Y-23708433D01*
X18956095Y-23803671D01*
X18956095Y-23898909D01*
X19432285Y-23994147D01*
X18527523Y-23660814D02*
X18527523Y-24327480D01*
X18527523Y-23756052D02*
X18479904Y-23708433D01*
X18384666Y-23660814D01*
X18241809Y-23660814D01*
X18146571Y-23708433D01*
X18098952Y-23803671D01*
X18098952Y-24327480D01*
X17194190Y-23660814D02*
X17194190Y-24470338D01*
X17241809Y-24565576D01*
X17289428Y-24613195D01*
X17384666Y-24660814D01*
X17527523Y-24660814D01*
X17622761Y-24613195D01*
X17194190Y-24279861D02*
X17289428Y-24327480D01*
X17479904Y-24327480D01*
X17575142Y-24279861D01*
X17622761Y-24232242D01*
X17670380Y-24137004D01*
X17670380Y-23851290D01*
X17622761Y-23756052D01*
X17575142Y-23708433D01*
X17479904Y-23660814D01*
X17289428Y-23660814D01*
X17194190Y-23708433D01*
X16337047Y-24279861D02*
X16432285Y-24327480D01*
X16622761Y-24327480D01*
X16718000Y-24279861D01*
X16765619Y-24184623D01*
X16765619Y-23803671D01*
X16718000Y-23708433D01*
X16622761Y-23660814D01*
X16432285Y-23660814D01*
X16337047Y-23708433D01*
X16289428Y-23803671D01*
X16289428Y-23898909D01*
X16765619Y-23994147D01*
X41575142Y-25952480D02*
X41575142Y-25428671D01*
X41622761Y-25333433D01*
X41718000Y-25285814D01*
X41908476Y-25285814D01*
X42003714Y-25333433D01*
X41575142Y-25904861D02*
X41670380Y-25952480D01*
X41908476Y-25952480D01*
X42003714Y-25904861D01*
X42051333Y-25809623D01*
X42051333Y-25714385D01*
X42003714Y-25619147D01*
X41908476Y-25571528D01*
X41670380Y-25571528D01*
X41575142Y-25523909D01*
X41098952Y-25285814D02*
X41098952Y-25952480D01*
X41098952Y-25381052D02*
X41051333Y-25333433D01*
X40956095Y-25285814D01*
X40813238Y-25285814D01*
X40718000Y-25333433D01*
X40670380Y-25428671D01*
X40670380Y-25952480D01*
X39765619Y-25952480D02*
X39765619Y-24952480D01*
X39765619Y-25904861D02*
X39860857Y-25952480D01*
X40051333Y-25952480D01*
X40146571Y-25904861D01*
X40194190Y-25857242D01*
X40241809Y-25762004D01*
X40241809Y-25476290D01*
X40194190Y-25381052D01*
X40146571Y-25333433D01*
X40051333Y-25285814D01*
X39860857Y-25285814D01*
X39765619Y-25333433D01*
X38337047Y-24952480D02*
X38146571Y-24952480D01*
X38051333Y-25000100D01*
X37956095Y-25095338D01*
X37908476Y-25285814D01*
X37908476Y-25619147D01*
X37956095Y-25809623D01*
X38051333Y-25904861D01*
X38146571Y-25952480D01*
X38337047Y-25952480D01*
X38432285Y-25904861D01*
X38527523Y-25809623D01*
X38575142Y-25619147D01*
X38575142Y-25285814D01*
X38527523Y-25095338D01*
X38432285Y-25000100D01*
X38337047Y-24952480D01*
X37479904Y-25285814D02*
X37479904Y-26285814D01*
X37479904Y-25333433D02*
X37384666Y-25285814D01*
X37194190Y-25285814D01*
X37098952Y-25333433D01*
X37051333Y-25381052D01*
X37003714Y-25476290D01*
X37003714Y-25762004D01*
X37051333Y-25857242D01*
X37098952Y-25904861D01*
X37194190Y-25952480D01*
X37384666Y-25952480D01*
X37479904Y-25904861D01*
X36194190Y-25904861D02*
X36289428Y-25952480D01*
X36479904Y-25952480D01*
X36575142Y-25904861D01*
X36622761Y-25809623D01*
X36622761Y-25428671D01*
X36575142Y-25333433D01*
X36479904Y-25285814D01*
X36289428Y-25285814D01*
X36194190Y-25333433D01*
X36146571Y-25428671D01*
X36146571Y-25523909D01*
X36622761Y-25619147D01*
X35718000Y-25285814D02*
X35718000Y-25952480D01*
X35718000Y-25381052D02*
X35670380Y-25333433D01*
X35575142Y-25285814D01*
X35432285Y-25285814D01*
X35337047Y-25333433D01*
X35289428Y-25428671D01*
X35289428Y-25952480D01*
X34241809Y-25857242D02*
X34289428Y-25904861D01*
X34432285Y-25952480D01*
X34527523Y-25952480D01*
X34670380Y-25904861D01*
X34765619Y-25809623D01*
X34813238Y-25714385D01*
X34860857Y-25523909D01*
X34860857Y-25381052D01*
X34813238Y-25190576D01*
X34765619Y-25095338D01*
X34670380Y-25000100D01*
X34527523Y-24952480D01*
X34432285Y-24952480D01*
X34289428Y-25000100D01*
X34241809Y-25047719D01*
X33479904Y-25428671D02*
X33337047Y-25476290D01*
X33289428Y-25523909D01*
X33241809Y-25619147D01*
X33241809Y-25762004D01*
X33289428Y-25857242D01*
X33337047Y-25904861D01*
X33432285Y-25952480D01*
X33813238Y-25952480D01*
X33813238Y-24952480D01*
X33479904Y-24952480D01*
X33384666Y-25000100D01*
X33337047Y-25047719D01*
X33289428Y-25142957D01*
X33289428Y-25238195D01*
X33337047Y-25333433D01*
X33384666Y-25381052D01*
X33479904Y-25428671D01*
X33813238Y-25428671D01*
X32813238Y-25952480D02*
X32813238Y-24952480D01*
X32479904Y-25666766D01*
X32146571Y-24952480D01*
X32146571Y-25952480D01*
X30765619Y-25952480D02*
X30860857Y-25904861D01*
X30908476Y-25809623D01*
X30908476Y-24952480D01*
X30384666Y-25952480D02*
X30384666Y-25285814D01*
X30384666Y-24952480D02*
X30432285Y-25000100D01*
X30384666Y-25047719D01*
X30337047Y-25000100D01*
X30384666Y-24952480D01*
X30384666Y-25047719D01*
X29479904Y-25904861D02*
X29575142Y-25952480D01*
X29765619Y-25952480D01*
X29860857Y-25904861D01*
X29908476Y-25857242D01*
X29956095Y-25762004D01*
X29956095Y-25476290D01*
X29908476Y-25381052D01*
X29860857Y-25333433D01*
X29765619Y-25285814D01*
X29575142Y-25285814D01*
X29479904Y-25333433D01*
X28670380Y-25904861D02*
X28765619Y-25952480D01*
X28956095Y-25952480D01*
X29051333Y-25904861D01*
X29098952Y-25809623D01*
X29098952Y-25428671D01*
X29051333Y-25333433D01*
X28956095Y-25285814D01*
X28765619Y-25285814D01*
X28670380Y-25333433D01*
X28622761Y-25428671D01*
X28622761Y-25523909D01*
X29098952Y-25619147D01*
X28194190Y-25285814D02*
X28194190Y-25952480D01*
X28194190Y-25381052D02*
X28146571Y-25333433D01*
X28051333Y-25285814D01*
X27908476Y-25285814D01*
X27813238Y-25333433D01*
X27765619Y-25428671D01*
X27765619Y-25952480D01*
X27337047Y-25904861D02*
X27241809Y-25952480D01*
X27051333Y-25952480D01*
X26956095Y-25904861D01*
X26908476Y-25809623D01*
X26908476Y-25762004D01*
X26956095Y-25666766D01*
X27051333Y-25619147D01*
X27194190Y-25619147D01*
X27289428Y-25571528D01*
X27337047Y-25476290D01*
X27337047Y-25428671D01*
X27289428Y-25333433D01*
X27194190Y-25285814D01*
X27051333Y-25285814D01*
X26956095Y-25333433D01*
X26098952Y-25904861D02*
X26194190Y-25952480D01*
X26384666Y-25952480D01*
X26479904Y-25904861D01*
X26527523Y-25809623D01*
X26527523Y-25428671D01*
X26479904Y-25333433D01*
X26384666Y-25285814D01*
X26194190Y-25285814D01*
X26098952Y-25333433D01*
X26051333Y-25428671D01*
X26051333Y-25523909D01*
X26527523Y-25619147D01*
X25194190Y-25952480D02*
X25194190Y-24952480D01*
X25194190Y-25904861D02*
X25289428Y-25952480D01*
X25479904Y-25952480D01*
X25575142Y-25904861D01*
X25622761Y-25857242D01*
X25670380Y-25762004D01*
X25670380Y-25476290D01*
X25622761Y-25381052D01*
X25575142Y-25333433D01*
X25479904Y-25285814D01*
X25289428Y-25285814D01*
X25194190Y-25333433D01*
X23527523Y-25952480D02*
X23527523Y-25428671D01*
X23575142Y-25333433D01*
X23670380Y-25285814D01*
X23860857Y-25285814D01*
X23956095Y-25333433D01*
X23527523Y-25904861D02*
X23622761Y-25952480D01*
X23860857Y-25952480D01*
X23956095Y-25904861D01*
X24003714Y-25809623D01*
X24003714Y-25714385D01*
X23956095Y-25619147D01*
X23860857Y-25571528D01*
X23622761Y-25571528D01*
X23527523Y-25523909D01*
X23098952Y-25904861D02*
X23003714Y-25952480D01*
X22813238Y-25952480D01*
X22718000Y-25904861D01*
X22670380Y-25809623D01*
X22670380Y-25762004D01*
X22718000Y-25666766D01*
X22813238Y-25619147D01*
X22956095Y-25619147D01*
X23051333Y-25571528D01*
X23098952Y-25476290D01*
X23098952Y-25428671D01*
X23051333Y-25333433D01*
X22956095Y-25285814D01*
X22813238Y-25285814D01*
X22718000Y-25333433D01*
X20956095Y-25000100D02*
X21051333Y-24952480D01*
X21194190Y-24952480D01*
X21337047Y-25000100D01*
X21432285Y-25095338D01*
X21479904Y-25190576D01*
X21527523Y-25381052D01*
X21527523Y-25523909D01*
X21479904Y-25714385D01*
X21432285Y-25809623D01*
X21337047Y-25904861D01*
X21194190Y-25952480D01*
X21098952Y-25952480D01*
X20956095Y-25904861D01*
X20908476Y-25857242D01*
X20908476Y-25523909D01*
X21098952Y-25523909D01*
X20479904Y-25952480D02*
X20479904Y-24952480D01*
X20098952Y-24952480D01*
X20003714Y-25000100D01*
X19956095Y-25047719D01*
X19908476Y-25142957D01*
X19908476Y-25285814D01*
X19956095Y-25381052D01*
X20003714Y-25428671D01*
X20098952Y-25476290D01*
X20479904Y-25476290D01*
X19003714Y-25952480D02*
X19479904Y-25952480D01*
X19479904Y-24952480D01*
X18765619Y-25285814D02*
X18527523Y-25952480D01*
X18289428Y-25285814D01*
X17956095Y-25047719D02*
X17908476Y-25000100D01*
X17813238Y-24952480D01*
X17575142Y-24952480D01*
X17479904Y-25000100D01*
X17432285Y-25047719D01*
X17384666Y-25142957D01*
X17384666Y-25238195D01*
X17432285Y-25381052D01*
X18003714Y-25952480D01*
X17384666Y-25952480D01*
M02*
