M48
INCH,TZ
T1C0.0157
T2C0.0197
T3C0.0236
T4C0.0256
T5C0.0295
T6C0.0315
T7C0.0354
T8C0.0394
T9C0.0433
%
G90
G05
T1
X28487Y-7817
X28487Y-9376
X28487Y-10935
X28487Y-12494
X28487Y-14053
X28487Y-15612
T2
X11050Y-8785
X20748Y-6339
T3
X22510Y-16060
X23297Y-16060
T4
X6860Y-12890
X7360Y-12890
X7860Y-12890
T5
X15729Y-13234
X16229Y-13234
X16729Y-13234
T6
X18289Y-5744
X22289Y-5744
X11625Y-16524
X15625Y-16524
X16260Y-15157
X17244Y-15157
X10390Y-12820
X14390Y-12820
X16835Y-17610
X21835Y-17610
X18289Y-6980
X22289Y-6980
T7
X22975Y-13708
X22975Y-14708
X22975Y-9440
X22975Y-10440
T8
X11980Y-14650
X12980Y-14650
X13980Y-14650
T9
X11771Y-17696
X15771Y-17696
X6285Y-5574
X6285Y-11574
X7285Y-5574
X7285Y-11574
X8285Y-5574
X8285Y-11574
X9285Y-5574
X9285Y-11574
X10285Y-5574
X10285Y-11574
X11285Y-5574
X11285Y-11574
X12285Y-5574
X12285Y-11574
X13285Y-5574
X13285Y-11574
X14285Y-5574
X14285Y-11574
X15285Y-5574
X15285Y-11574
X16285Y-5574
X16285Y-11574
X17285Y-5574
X17285Y-11574
X18954Y-15447
X19954Y-15447
X20954Y-15447
T8
G00X7958Y-15146
M15
G01X7958Y-15934
M16
G05
G00X8745Y-17390
M15
G01X9533Y-17390
M16
G05
G00X10320Y-15146
M15
G01X10320Y-15934
M16
G05
T0
M30
