G04 #@! TF.GenerationSoftware,KiCad,Pcbnew,(5.1.6)-1*
G04 #@! TF.CreationDate,2020-12-02T16:01:19+01:00*
G04 #@! TF.ProjectId,TapeXUM,54617065-5855-44d2-9e6b-696361645f70,rev?*
G04 #@! TF.SameCoordinates,Original*
G04 #@! TF.FileFunction,Copper,L1,Top*
G04 #@! TF.FilePolarity,Positive*
%FSLAX46Y46*%
G04 Gerber Fmt 4.6, Leading zero omitted, Abs format (unit mm)*
G04 Created by KiCad (PCBNEW (5.1.6)-1) date 2020-12-02 16:01:19*
%MOMM*%
%LPD*%
G01*
G04 APERTURE LIST*
G04 #@! TA.AperFunction,ComponentPad*
%ADD10R,1.600000X1.600000*%
G04 #@! TD*
G04 #@! TA.AperFunction,ComponentPad*
%ADD11C,1.600000*%
G04 #@! TD*
G04 #@! TA.AperFunction,ComponentPad*
%ADD12R,9.000000X2.400000*%
G04 #@! TD*
G04 #@! TA.AperFunction,ComponentPad*
%ADD13O,1.000000X1.000000*%
G04 #@! TD*
G04 #@! TA.AperFunction,ComponentPad*
%ADD14R,1.000000X1.000000*%
G04 #@! TD*
G04 #@! TA.AperFunction,ComponentPad*
%ADD15O,1.600000X1.600000*%
G04 #@! TD*
G04 #@! TA.AperFunction,ComponentPad*
%ADD16O,1.700000X1.700000*%
G04 #@! TD*
G04 #@! TA.AperFunction,ComponentPad*
%ADD17R,1.700000X1.700000*%
G04 #@! TD*
G04 #@! TA.AperFunction,ComponentPad*
%ADD18R,3.500000X3.500000*%
G04 #@! TD*
G04 #@! TA.AperFunction,ComponentPad*
%ADD19R,1.050000X1.500000*%
G04 #@! TD*
G04 #@! TA.AperFunction,ComponentPad*
%ADD20O,1.050000X1.500000*%
G04 #@! TD*
G04 #@! TA.AperFunction,ComponentPad*
%ADD21O,1.905000X2.000000*%
G04 #@! TD*
G04 #@! TA.AperFunction,ComponentPad*
%ADD22R,1.905000X2.000000*%
G04 #@! TD*
G04 #@! TA.AperFunction,ComponentPad*
%ADD23C,1.800000*%
G04 #@! TD*
G04 #@! TA.AperFunction,ComponentPad*
%ADD24R,1.800000X1.800000*%
G04 #@! TD*
G04 #@! TA.AperFunction,ComponentPad*
%ADD25O,2.200000X2.200000*%
G04 #@! TD*
G04 #@! TA.AperFunction,ComponentPad*
%ADD26R,2.200000X2.200000*%
G04 #@! TD*
G04 #@! TA.AperFunction,ComponentPad*
%ADD27C,1.200000*%
G04 #@! TD*
G04 #@! TA.AperFunction,ComponentPad*
%ADD28R,1.200000X1.200000*%
G04 #@! TD*
G04 #@! TA.AperFunction,ViaPad*
%ADD29C,1.000000*%
G04 #@! TD*
G04 #@! TA.AperFunction,Conductor*
%ADD30C,0.450000*%
G04 #@! TD*
G04 #@! TA.AperFunction,Conductor*
%ADD31C,0.600000*%
G04 #@! TD*
G04 #@! TA.AperFunction,Conductor*
%ADD32C,0.300000*%
G04 #@! TD*
G04 APERTURE END LIST*
D10*
X15963900Y-29397960D03*
D11*
X18503900Y-29397960D03*
X21043900Y-29397960D03*
X23583900Y-29397960D03*
X26123900Y-29397960D03*
X28663900Y-29397960D03*
X31203900Y-29397960D03*
X33743900Y-29397960D03*
X36283900Y-29397960D03*
X38823900Y-29397960D03*
X41363900Y-29397960D03*
X43903900Y-29397960D03*
X43903900Y-14157960D03*
X41363900Y-14157960D03*
X38823900Y-14157960D03*
X36283900Y-14157960D03*
X33743900Y-14157960D03*
X31203900Y-14157960D03*
X28663900Y-14157960D03*
X26123900Y-14157960D03*
X23583900Y-14157960D03*
X21043900Y-14157960D03*
X18503900Y-14157960D03*
X15963900Y-14157960D03*
D12*
X69856980Y-19854900D03*
X69856980Y-23814900D03*
X69856980Y-27774900D03*
X69856980Y-31734900D03*
X69856980Y-35694900D03*
X69856980Y-39654900D03*
D13*
X19964400Y-32740600D03*
X18694400Y-32740600D03*
D14*
X17424400Y-32740600D03*
D15*
X56613120Y-14589760D03*
D11*
X46453120Y-14589760D03*
X41300000Y-38500000D03*
D10*
X43800000Y-38500000D03*
D16*
X30429200Y-37211000D03*
X32969200Y-37211000D03*
D17*
X35509200Y-37211000D03*
G04 #@! TA.AperFunction,ComponentPad*
G36*
G01*
X21462800Y-45046600D02*
X21462800Y-43296600D01*
G75*
G02*
X22337800Y-42421600I875000J0D01*
G01*
X24087800Y-42421600D01*
G75*
G02*
X24962800Y-43296600I0J-875000D01*
G01*
X24962800Y-45046600D01*
G75*
G02*
X24087800Y-45921600I-875000J0D01*
G01*
X22337800Y-45921600D01*
G75*
G02*
X21462800Y-45046600I0J875000D01*
G01*
G37*
G04 #@! TD.AperFunction*
G04 #@! TA.AperFunction,ComponentPad*
G36*
G01*
X18712800Y-40471600D02*
X18712800Y-38471600D01*
G75*
G02*
X19462800Y-37721600I750000J0D01*
G01*
X20962800Y-37721600D01*
G75*
G02*
X21712800Y-38471600I0J-750000D01*
G01*
X21712800Y-40471600D01*
G75*
G02*
X20962800Y-41221600I-750000J0D01*
G01*
X19462800Y-41221600D01*
G75*
G02*
X18712800Y-40471600I0J750000D01*
G01*
G37*
G04 #@! TD.AperFunction*
D18*
X26212800Y-39471600D03*
D15*
X56613120Y-17729200D03*
D11*
X46453120Y-17729200D03*
D15*
X36550600Y-32562800D03*
D11*
X26390600Y-32562800D03*
D15*
X42760900Y-44729400D03*
D11*
X55460900Y-44729400D03*
D19*
X39951660Y-33614360D03*
D20*
X42491660Y-33614360D03*
X41221660Y-33614360D03*
D21*
X53223160Y-39235380D03*
X50683160Y-39235380D03*
D22*
X48143160Y-39235380D03*
D23*
X58356500Y-23977600D03*
D24*
X58356500Y-26517600D03*
D15*
X29527500Y-41970960D03*
D10*
X39687500Y-41970960D03*
D23*
X58356500Y-34818320D03*
D24*
X58356500Y-37358320D03*
D25*
X29898340Y-44947840D03*
D26*
X40058340Y-44947840D03*
D27*
X59175400Y-40792400D03*
D28*
X57175400Y-40792400D03*
D29*
X52700000Y-16100000D03*
X28067000Y-22313900D03*
D30*
X23583900Y-14157960D02*
X35026600Y-25600660D01*
X38354000Y-36830000D02*
X43380000Y-36830000D01*
X43800000Y-37250000D02*
X43800000Y-38500000D01*
X43380000Y-36830000D02*
X43800000Y-37250000D01*
X35026600Y-33502600D02*
X38354000Y-36830000D01*
X35026600Y-25600660D02*
X35026600Y-33502600D01*
X52700000Y-16100000D02*
X52700000Y-16100000D01*
X41363900Y-14157960D02*
X43305940Y-16100000D01*
X43305940Y-16100000D02*
X52700000Y-16100000D01*
X58356500Y-34843500D02*
X58356500Y-34818320D01*
X53964620Y-39235380D02*
X58356500Y-34843500D01*
X53223160Y-39235380D02*
X53964620Y-39235380D01*
X54780180Y-40792400D02*
X53223160Y-39235380D01*
X57175400Y-40792400D02*
X54780180Y-40792400D01*
X50683160Y-42900600D02*
X50683160Y-39235380D01*
X40058340Y-44947840D02*
X42105580Y-42900600D01*
X42105580Y-42900600D02*
X50683160Y-42900600D01*
X52511960Y-44729400D02*
X50683160Y-42900600D01*
X55460900Y-44729400D02*
X52511960Y-44729400D01*
X56700000Y-25634100D02*
X58356500Y-23977600D01*
X50683160Y-37935380D02*
X51618540Y-37000000D01*
X50683160Y-39235380D02*
X50683160Y-37935380D01*
X51618540Y-37000000D02*
X54211400Y-37000000D01*
X54211400Y-37000000D02*
X56700000Y-34511400D01*
X56700000Y-34511400D02*
X56700000Y-25634100D01*
X57513119Y-15389759D02*
X56713120Y-14589760D01*
X60655200Y-18531840D02*
X57513119Y-15389759D01*
X60655200Y-36259620D02*
X60655200Y-18531840D01*
X58356500Y-37358320D02*
X59556500Y-37358320D01*
X59556500Y-37358320D02*
X60655200Y-36259620D01*
X48143160Y-39282880D02*
X48143160Y-39235380D01*
X45455080Y-41970960D02*
X48143160Y-39282880D01*
X39687500Y-41970960D02*
X45455080Y-41970960D01*
X44079160Y-33614360D02*
X42491660Y-33614360D01*
X48143160Y-37678360D02*
X44079160Y-33614360D01*
X48143160Y-39235380D02*
X48143160Y-37678360D01*
X57513119Y-18529199D02*
X56713120Y-17729200D01*
X59842400Y-20858480D02*
X57513119Y-18529199D01*
X59842400Y-24688800D02*
X59842400Y-20858480D01*
X58356500Y-26517600D02*
X58356500Y-26174700D01*
X58356500Y-26174700D02*
X59842400Y-24688800D01*
X41221660Y-34384362D02*
X41221660Y-33614360D01*
X40528622Y-35077400D02*
X41221660Y-34384362D01*
X37933830Y-35077400D02*
X40528622Y-35077400D01*
X36550600Y-32562800D02*
X36550600Y-33694170D01*
X36550600Y-33694170D02*
X37933830Y-35077400D01*
X26390600Y-32562800D02*
X27406600Y-31546800D01*
X27406600Y-31546800D02*
X27406600Y-22974300D01*
X27567001Y-22813899D02*
X28067000Y-22313900D01*
X27406600Y-22974300D02*
X27567001Y-22813899D01*
X32969200Y-41876980D02*
X32969200Y-37211000D01*
X29898340Y-44947840D02*
X32969200Y-41876980D01*
D31*
X28448000Y-35229800D02*
X30429200Y-37211000D01*
X14330680Y-15791180D02*
X14330680Y-32110680D01*
X15963900Y-14157960D02*
X14330680Y-15791180D01*
X14330680Y-32110680D02*
X17449800Y-35229800D01*
X17449800Y-35229800D02*
X28448000Y-35229800D01*
D32*
X16058866Y-29397960D02*
X15963900Y-29397960D01*
X18694400Y-32033494D02*
X16058866Y-29397960D01*
X18694400Y-32740600D02*
X18694400Y-32033494D01*
X19964400Y-30858460D02*
X18503900Y-29397960D01*
X19964400Y-32740600D02*
X19964400Y-30858460D01*
M02*
