G04 #@! TF.GenerationSoftware,KiCad,Pcbnew,(5.1.6)-1*
G04 #@! TF.CreationDate,2020-12-02T16:01:19+01:00*
G04 #@! TF.ProjectId,TapeXUM,54617065-5855-44d2-9e6b-696361645f70,rev?*
G04 #@! TF.SameCoordinates,Original*
G04 #@! TF.FileFunction,Soldermask,Bot*
G04 #@! TF.FilePolarity,Negative*
%FSLAX46Y46*%
G04 Gerber Fmt 4.6, Leading zero omitted, Abs format (unit mm)*
G04 Created by KiCad (PCBNEW (5.1.6)-1) date 2020-12-02 16:01:19*
%MOMM*%
%LPD*%
G01*
G04 APERTURE LIST*
%ADD10C,0.100000*%
G04 APERTURE END LIST*
D10*
G36*
X41209340Y-46098840D02*
G01*
X38907340Y-46098840D01*
X38907340Y-43796840D01*
X41209340Y-43796840D01*
X41209340Y-46098840D01*
G37*
G36*
X30077663Y-43809960D02*
G01*
X30234074Y-43841072D01*
X30382190Y-43902424D01*
X30403149Y-43911105D01*
X30443543Y-43927837D01*
X30632060Y-44053800D01*
X30792380Y-44214120D01*
X30918343Y-44402637D01*
X30996215Y-44590636D01*
X31005108Y-44612107D01*
X31045937Y-44817365D01*
X31049340Y-44834476D01*
X31049340Y-45061204D01*
X31005108Y-45283574D01*
X30960853Y-45390415D01*
X30922277Y-45483547D01*
X30918343Y-45493043D01*
X30792380Y-45681560D01*
X30632060Y-45841880D01*
X30443543Y-45967843D01*
X30234074Y-46054608D01*
X30122889Y-46076724D01*
X30011705Y-46098840D01*
X29784975Y-46098840D01*
X29673791Y-46076724D01*
X29562606Y-46054608D01*
X29353137Y-45967843D01*
X29164620Y-45841880D01*
X29004300Y-45681560D01*
X28878337Y-45493043D01*
X28874404Y-45483547D01*
X28835827Y-45390415D01*
X28791572Y-45283574D01*
X28747340Y-45061204D01*
X28747340Y-44834476D01*
X28750744Y-44817365D01*
X28791572Y-44612107D01*
X28800466Y-44590636D01*
X28878337Y-44402637D01*
X29004300Y-44214120D01*
X29164620Y-44053800D01*
X29353137Y-43927837D01*
X29393532Y-43911105D01*
X29414490Y-43902424D01*
X29562606Y-43841072D01*
X29719017Y-43809960D01*
X29784975Y-43796840D01*
X30011705Y-43796840D01*
X30077663Y-43809960D01*
G37*
G36*
X24339166Y-42387295D02*
G01*
X24496260Y-42434949D01*
X24641031Y-42512331D01*
X24767928Y-42616472D01*
X24872069Y-42743369D01*
X24949451Y-42888140D01*
X24997105Y-43045234D01*
X25013800Y-43214740D01*
X25013800Y-45128460D01*
X24997105Y-45297966D01*
X24949451Y-45455060D01*
X24872069Y-45599831D01*
X24767928Y-45726728D01*
X24641031Y-45830869D01*
X24496260Y-45908251D01*
X24339166Y-45955905D01*
X24169660Y-45972600D01*
X22255940Y-45972600D01*
X22086434Y-45955905D01*
X21929340Y-45908251D01*
X21784569Y-45830869D01*
X21657672Y-45726728D01*
X21553531Y-45599831D01*
X21476149Y-45455060D01*
X21428495Y-45297966D01*
X21411800Y-45128460D01*
X21411800Y-43214740D01*
X21428495Y-43045234D01*
X21476149Y-42888140D01*
X21553531Y-42743369D01*
X21657672Y-42616472D01*
X21784569Y-42512331D01*
X21929340Y-42434949D01*
X22086434Y-42387295D01*
X22255940Y-42370600D01*
X24169660Y-42370600D01*
X24339166Y-42387295D01*
G37*
G36*
X59824549Y-43575116D02*
G01*
X59935734Y-43597232D01*
X60145203Y-43683997D01*
X60333720Y-43809960D01*
X60494040Y-43970280D01*
X60620003Y-44158797D01*
X60620004Y-44158799D01*
X60706768Y-44368267D01*
X60751000Y-44590635D01*
X60751000Y-44817365D01*
X60747596Y-44834476D01*
X60706768Y-45039734D01*
X60620003Y-45249203D01*
X60494040Y-45437720D01*
X60333720Y-45598040D01*
X60145203Y-45724003D01*
X60145202Y-45724004D01*
X60145201Y-45724004D01*
X60083850Y-45749416D01*
X59935734Y-45810768D01*
X59834679Y-45830869D01*
X59713365Y-45855000D01*
X59486635Y-45855000D01*
X59365321Y-45830869D01*
X59264266Y-45810768D01*
X59116150Y-45749416D01*
X59054799Y-45724004D01*
X59054798Y-45724004D01*
X59054797Y-45724003D01*
X58866280Y-45598040D01*
X58705960Y-45437720D01*
X58579997Y-45249203D01*
X58493232Y-45039734D01*
X58452404Y-44834476D01*
X58449000Y-44817365D01*
X58449000Y-44590635D01*
X58493232Y-44368267D01*
X58579996Y-44158799D01*
X58579997Y-44158797D01*
X58705960Y-43970280D01*
X58866280Y-43809960D01*
X59054797Y-43683997D01*
X59264266Y-43597232D01*
X59375451Y-43575116D01*
X59486635Y-43553000D01*
X59713365Y-43553000D01*
X59824549Y-43575116D01*
G37*
G36*
X55709128Y-43911103D02*
G01*
X55864000Y-43975253D01*
X56003381Y-44068385D01*
X56121915Y-44186919D01*
X56215047Y-44326300D01*
X56279197Y-44481172D01*
X56311900Y-44645584D01*
X56311900Y-44813216D01*
X56279197Y-44977628D01*
X56215047Y-45132500D01*
X56121915Y-45271881D01*
X56003381Y-45390415D01*
X55864000Y-45483547D01*
X55709128Y-45547697D01*
X55544716Y-45580400D01*
X55377084Y-45580400D01*
X55212672Y-45547697D01*
X55057800Y-45483547D01*
X54918419Y-45390415D01*
X54799885Y-45271881D01*
X54706753Y-45132500D01*
X54642603Y-44977628D01*
X54609900Y-44813216D01*
X54609900Y-44645584D01*
X54642603Y-44481172D01*
X54706753Y-44326300D01*
X54799885Y-44186919D01*
X54918419Y-44068385D01*
X55057800Y-43975253D01*
X55212672Y-43911103D01*
X55377084Y-43878400D01*
X55544716Y-43878400D01*
X55709128Y-43911103D01*
G37*
G36*
X43009128Y-43911103D02*
G01*
X43164000Y-43975253D01*
X43303381Y-44068385D01*
X43421915Y-44186919D01*
X43515047Y-44326300D01*
X43579197Y-44481172D01*
X43611900Y-44645584D01*
X43611900Y-44813216D01*
X43579197Y-44977628D01*
X43515047Y-45132500D01*
X43421915Y-45271881D01*
X43303381Y-45390415D01*
X43164000Y-45483547D01*
X43009128Y-45547697D01*
X42844716Y-45580400D01*
X42677084Y-45580400D01*
X42512672Y-45547697D01*
X42357800Y-45483547D01*
X42218419Y-45390415D01*
X42099885Y-45271881D01*
X42006753Y-45132500D01*
X41942603Y-44977628D01*
X41909900Y-44813216D01*
X41909900Y-44645584D01*
X41942603Y-44481172D01*
X42006753Y-44326300D01*
X42099885Y-44186919D01*
X42218419Y-44068385D01*
X42357800Y-43975253D01*
X42512672Y-43911103D01*
X42677084Y-43878400D01*
X42844716Y-43878400D01*
X43009128Y-43911103D01*
G37*
G36*
X74599800Y-16408400D02*
G01*
X74665212Y-33709803D01*
X74701361Y-43271100D01*
X74701400Y-43281600D01*
X74694969Y-43281566D01*
X74694967Y-43281566D01*
X65157137Y-43230833D01*
X65157133Y-43230833D01*
X65151000Y-43230800D01*
X65151000Y-16383000D01*
X74599800Y-16408400D01*
G37*
G36*
X40538500Y-42821960D02*
G01*
X38836500Y-42821960D01*
X38836500Y-41119960D01*
X40538500Y-41119960D01*
X40538500Y-42821960D01*
G37*
G36*
X29775728Y-41152663D02*
G01*
X29930600Y-41216813D01*
X30069981Y-41309945D01*
X30188515Y-41428479D01*
X30281647Y-41567860D01*
X30345797Y-41722732D01*
X30378500Y-41887144D01*
X30378500Y-42054776D01*
X30345797Y-42219188D01*
X30281647Y-42374060D01*
X30188515Y-42513441D01*
X30069981Y-42631975D01*
X29930600Y-42725107D01*
X29775728Y-42789257D01*
X29611316Y-42821960D01*
X29443684Y-42821960D01*
X29279272Y-42789257D01*
X29124400Y-42725107D01*
X28985019Y-42631975D01*
X28866485Y-42513441D01*
X28773353Y-42374060D01*
X28709203Y-42219188D01*
X28676500Y-42054776D01*
X28676500Y-41887144D01*
X28709203Y-41722732D01*
X28773353Y-41567860D01*
X28866485Y-41428479D01*
X28985019Y-41309945D01*
X29124400Y-41216813D01*
X29279272Y-41152663D01*
X29443684Y-41119960D01*
X29611316Y-41119960D01*
X29775728Y-41152663D01*
G37*
G36*
X57826400Y-41443400D02*
G01*
X56524400Y-41443400D01*
X56524400Y-40141400D01*
X57826400Y-40141400D01*
X57826400Y-41443400D01*
G37*
G36*
X59365290Y-40166417D02*
G01*
X59481319Y-40214478D01*
X59483764Y-40215491D01*
X59568126Y-40271860D01*
X59590388Y-40286735D01*
X59681065Y-40377412D01*
X59752310Y-40484038D01*
X59801383Y-40602510D01*
X59826400Y-40728281D01*
X59826400Y-40856519D01*
X59801383Y-40982290D01*
X59775217Y-41045461D01*
X59752309Y-41100764D01*
X59681065Y-41207388D01*
X59590388Y-41298065D01*
X59483764Y-41369309D01*
X59483763Y-41369310D01*
X59483762Y-41369310D01*
X59365290Y-41418383D01*
X59239519Y-41443400D01*
X59111281Y-41443400D01*
X58985510Y-41418383D01*
X58867038Y-41369310D01*
X58867037Y-41369310D01*
X58867036Y-41369309D01*
X58760412Y-41298065D01*
X58669735Y-41207388D01*
X58598491Y-41100764D01*
X58575584Y-41045461D01*
X58549417Y-40982290D01*
X58524400Y-40856519D01*
X58524400Y-40728281D01*
X58549417Y-40602510D01*
X58598490Y-40484038D01*
X58669735Y-40377412D01*
X58760412Y-40286735D01*
X58782674Y-40271860D01*
X58867036Y-40215491D01*
X58869482Y-40214478D01*
X58985510Y-40166417D01*
X59111281Y-40141400D01*
X59239519Y-40141400D01*
X59365290Y-40166417D01*
G37*
G36*
X21189779Y-37684893D02*
G01*
X21323425Y-37725434D01*
X21446584Y-37791264D01*
X21554540Y-37879860D01*
X21643136Y-37987816D01*
X21708966Y-38110975D01*
X21749507Y-38244621D01*
X21763800Y-38389740D01*
X21763800Y-40553460D01*
X21749507Y-40698579D01*
X21708966Y-40832225D01*
X21643136Y-40955384D01*
X21554540Y-41063340D01*
X21446584Y-41151936D01*
X21323425Y-41217766D01*
X21189779Y-41258307D01*
X21044660Y-41272600D01*
X19380940Y-41272600D01*
X19235821Y-41258307D01*
X19102175Y-41217766D01*
X18979016Y-41151936D01*
X18871060Y-41063340D01*
X18782464Y-40955384D01*
X18716634Y-40832225D01*
X18676093Y-40698579D01*
X18661800Y-40553460D01*
X18661800Y-38389740D01*
X18676093Y-38244621D01*
X18716634Y-38110975D01*
X18782464Y-37987816D01*
X18871060Y-37879860D01*
X18979016Y-37791264D01*
X19102175Y-37725434D01*
X19235821Y-37684893D01*
X19380940Y-37670600D01*
X21044660Y-37670600D01*
X21189779Y-37684893D01*
G37*
G36*
X28013800Y-41272600D02*
G01*
X24411800Y-41272600D01*
X24411800Y-37670600D01*
X28013800Y-37670600D01*
X28013800Y-41272600D01*
G37*
G36*
X53419879Y-38198900D02*
G01*
X53609040Y-38256281D01*
X53609043Y-38256282D01*
X53701493Y-38305698D01*
X53783372Y-38349463D01*
X53936175Y-38474865D01*
X54061577Y-38627668D01*
X54154759Y-38801999D01*
X54212140Y-38991160D01*
X54226660Y-39138586D01*
X54226660Y-39332173D01*
X54212140Y-39479599D01*
X54154759Y-39668760D01*
X54154758Y-39668763D01*
X54105342Y-39761213D01*
X54061577Y-39843092D01*
X53936175Y-39995895D01*
X53783372Y-40121297D01*
X53609041Y-40214479D01*
X53419880Y-40271860D01*
X53223160Y-40291235D01*
X53026441Y-40271860D01*
X52837280Y-40214479D01*
X52662948Y-40121297D01*
X52510145Y-39995895D01*
X52384743Y-39843092D01*
X52291561Y-39668761D01*
X52234180Y-39479600D01*
X52219660Y-39332174D01*
X52219660Y-39138587D01*
X52234180Y-38991161D01*
X52291561Y-38802000D01*
X52291562Y-38801997D01*
X52340978Y-38709547D01*
X52384743Y-38627668D01*
X52510145Y-38474865D01*
X52662948Y-38349463D01*
X52837279Y-38256281D01*
X53026440Y-38198900D01*
X53223160Y-38179525D01*
X53419879Y-38198900D01*
G37*
G36*
X50879879Y-38198900D02*
G01*
X51069040Y-38256281D01*
X51069043Y-38256282D01*
X51161493Y-38305698D01*
X51243372Y-38349463D01*
X51396175Y-38474865D01*
X51521577Y-38627668D01*
X51614759Y-38801999D01*
X51672140Y-38991160D01*
X51686660Y-39138586D01*
X51686660Y-39332173D01*
X51672140Y-39479599D01*
X51614759Y-39668760D01*
X51614758Y-39668763D01*
X51565342Y-39761213D01*
X51521577Y-39843092D01*
X51396175Y-39995895D01*
X51243372Y-40121297D01*
X51069041Y-40214479D01*
X50879880Y-40271860D01*
X50683160Y-40291235D01*
X50486441Y-40271860D01*
X50297280Y-40214479D01*
X50122948Y-40121297D01*
X49970145Y-39995895D01*
X49844743Y-39843092D01*
X49751561Y-39668761D01*
X49694180Y-39479600D01*
X49679660Y-39332174D01*
X49679660Y-39138587D01*
X49694180Y-38991161D01*
X49751561Y-38802000D01*
X49751562Y-38801997D01*
X49800978Y-38709547D01*
X49844743Y-38627668D01*
X49970145Y-38474865D01*
X50122948Y-38349463D01*
X50297279Y-38256281D01*
X50486440Y-38198900D01*
X50683160Y-38179525D01*
X50879879Y-38198900D01*
G37*
G36*
X49146660Y-40286380D02*
G01*
X47139660Y-40286380D01*
X47139660Y-38184380D01*
X49146660Y-38184380D01*
X49146660Y-40286380D01*
G37*
G36*
X44651000Y-39351000D02*
G01*
X42949000Y-39351000D01*
X42949000Y-37649000D01*
X44651000Y-37649000D01*
X44651000Y-39351000D01*
G37*
G36*
X41548228Y-37681703D02*
G01*
X41703100Y-37745853D01*
X41842481Y-37838985D01*
X41961015Y-37957519D01*
X42054147Y-38096900D01*
X42118297Y-38251772D01*
X42151000Y-38416184D01*
X42151000Y-38583816D01*
X42118297Y-38748228D01*
X42054147Y-38903100D01*
X41961015Y-39042481D01*
X41842481Y-39161015D01*
X41703100Y-39254147D01*
X41548228Y-39318297D01*
X41383816Y-39351000D01*
X41216184Y-39351000D01*
X41051772Y-39318297D01*
X40896900Y-39254147D01*
X40757519Y-39161015D01*
X40638985Y-39042481D01*
X40545853Y-38903100D01*
X40481703Y-38748228D01*
X40449000Y-38583816D01*
X40449000Y-38416184D01*
X40481703Y-38251772D01*
X40545853Y-38096900D01*
X40638985Y-37957519D01*
X40757519Y-37838985D01*
X40896900Y-37745853D01*
X41051772Y-37681703D01*
X41216184Y-37649000D01*
X41383816Y-37649000D01*
X41548228Y-37681703D01*
G37*
G36*
X59307500Y-38309320D02*
G01*
X57405500Y-38309320D01*
X57405500Y-36407320D01*
X59307500Y-36407320D01*
X59307500Y-38309320D01*
G37*
G36*
X33082712Y-36314927D02*
G01*
X33232012Y-36344624D01*
X33395984Y-36412544D01*
X33543554Y-36511147D01*
X33669053Y-36636646D01*
X33767656Y-36784216D01*
X33835576Y-36948188D01*
X33870200Y-37122259D01*
X33870200Y-37299741D01*
X33835576Y-37473812D01*
X33767656Y-37637784D01*
X33669053Y-37785354D01*
X33543554Y-37910853D01*
X33395984Y-38009456D01*
X33232012Y-38077376D01*
X33082712Y-38107073D01*
X33057942Y-38112000D01*
X32880458Y-38112000D01*
X32855688Y-38107073D01*
X32706388Y-38077376D01*
X32542416Y-38009456D01*
X32394846Y-37910853D01*
X32269347Y-37785354D01*
X32170744Y-37637784D01*
X32102824Y-37473812D01*
X32068200Y-37299741D01*
X32068200Y-37122259D01*
X32102824Y-36948188D01*
X32170744Y-36784216D01*
X32269347Y-36636646D01*
X32394846Y-36511147D01*
X32542416Y-36412544D01*
X32706388Y-36344624D01*
X32855688Y-36314927D01*
X32880458Y-36310000D01*
X33057942Y-36310000D01*
X33082712Y-36314927D01*
G37*
G36*
X36410200Y-38112000D02*
G01*
X34608200Y-38112000D01*
X34608200Y-36310000D01*
X36410200Y-36310000D01*
X36410200Y-38112000D01*
G37*
G36*
X30542712Y-36314927D02*
G01*
X30692012Y-36344624D01*
X30855984Y-36412544D01*
X31003554Y-36511147D01*
X31129053Y-36636646D01*
X31227656Y-36784216D01*
X31295576Y-36948188D01*
X31330200Y-37122259D01*
X31330200Y-37299741D01*
X31295576Y-37473812D01*
X31227656Y-37637784D01*
X31129053Y-37785354D01*
X31003554Y-37910853D01*
X30855984Y-38009456D01*
X30692012Y-38077376D01*
X30542712Y-38107073D01*
X30517942Y-38112000D01*
X30340458Y-38112000D01*
X30315688Y-38107073D01*
X30166388Y-38077376D01*
X30002416Y-38009456D01*
X29854846Y-37910853D01*
X29729347Y-37785354D01*
X29630744Y-37637784D01*
X29562824Y-37473812D01*
X29528200Y-37299741D01*
X29528200Y-37122259D01*
X29562824Y-36948188D01*
X29630744Y-36784216D01*
X29729347Y-36636646D01*
X29854846Y-36511147D01*
X30002416Y-36412544D01*
X30166388Y-36344624D01*
X30315688Y-36314927D01*
X30340458Y-36310000D01*
X30517942Y-36310000D01*
X30542712Y-36314927D01*
G37*
G36*
X58633895Y-33903866D02*
G01*
X58806966Y-33975554D01*
X58806967Y-33975555D01*
X58962727Y-34079630D01*
X59095190Y-34212093D01*
X59095191Y-34212095D01*
X59199266Y-34367854D01*
X59270954Y-34540925D01*
X59307500Y-34724653D01*
X59307500Y-34911987D01*
X59270954Y-35095715D01*
X59199266Y-35268786D01*
X59199265Y-35268787D01*
X59095190Y-35424547D01*
X58962727Y-35557010D01*
X58884318Y-35609401D01*
X58806966Y-35661086D01*
X58633895Y-35732774D01*
X58450167Y-35769320D01*
X58262833Y-35769320D01*
X58079105Y-35732774D01*
X57906034Y-35661086D01*
X57828682Y-35609401D01*
X57750273Y-35557010D01*
X57617810Y-35424547D01*
X57513735Y-35268787D01*
X57513734Y-35268786D01*
X57442046Y-35095715D01*
X57405500Y-34911987D01*
X57405500Y-34724653D01*
X57442046Y-34540925D01*
X57513734Y-34367854D01*
X57617809Y-34212095D01*
X57617810Y-34212093D01*
X57750273Y-34079630D01*
X57906033Y-33975555D01*
X57906034Y-33975554D01*
X58079105Y-33903866D01*
X58262833Y-33867320D01*
X58450167Y-33867320D01*
X58633895Y-33903866D01*
G37*
G36*
X42604575Y-32821694D02*
G01*
X42713151Y-32854631D01*
X42713154Y-32854632D01*
X42720506Y-32858562D01*
X42813216Y-32908116D01*
X42900924Y-32980096D01*
X42972904Y-33067803D01*
X42992936Y-33105281D01*
X43026388Y-33167865D01*
X43026389Y-33167868D01*
X43059326Y-33276444D01*
X43067660Y-33361062D01*
X43067660Y-33867657D01*
X43059326Y-33952276D01*
X43026912Y-34059127D01*
X43026388Y-34060855D01*
X43016421Y-34079501D01*
X42972904Y-34160917D01*
X42900924Y-34248624D01*
X42813217Y-34320604D01*
X42749261Y-34354789D01*
X42713155Y-34374088D01*
X42713152Y-34374089D01*
X42604576Y-34407026D01*
X42491660Y-34418147D01*
X42378745Y-34407026D01*
X42270169Y-34374089D01*
X42270166Y-34374088D01*
X42234060Y-34354789D01*
X42170104Y-34320604D01*
X42082397Y-34248624D01*
X42010417Y-34160917D01*
X41966968Y-34079630D01*
X41966899Y-34079501D01*
X41953285Y-34059126D01*
X41935958Y-34041799D01*
X41915584Y-34028186D01*
X41892945Y-34018808D01*
X41868912Y-34014028D01*
X41844408Y-34014028D01*
X41820375Y-34018808D01*
X41797736Y-34028186D01*
X41777361Y-34041800D01*
X41760034Y-34059127D01*
X41746421Y-34079501D01*
X41702904Y-34160917D01*
X41630924Y-34248624D01*
X41543217Y-34320604D01*
X41479261Y-34354789D01*
X41443155Y-34374088D01*
X41443152Y-34374089D01*
X41334576Y-34407026D01*
X41221660Y-34418147D01*
X41108745Y-34407026D01*
X41000169Y-34374089D01*
X41000166Y-34374088D01*
X40964060Y-34354789D01*
X40900104Y-34320604D01*
X40812397Y-34248624D01*
X40749282Y-34171719D01*
X40731957Y-34154394D01*
X40711583Y-34140780D01*
X40688944Y-34131403D01*
X40664910Y-34126623D01*
X40640406Y-34126623D01*
X40616373Y-34131404D01*
X40593734Y-34140781D01*
X40573360Y-34154395D01*
X40556033Y-34171722D01*
X40542419Y-34192096D01*
X40533042Y-34214735D01*
X40527660Y-34251020D01*
X40527660Y-34415360D01*
X39375660Y-34415360D01*
X39375660Y-32813360D01*
X40527660Y-32813360D01*
X40527660Y-32977701D01*
X40530062Y-33002087D01*
X40537175Y-33025536D01*
X40548726Y-33047147D01*
X40564271Y-33066089D01*
X40583213Y-33081634D01*
X40604824Y-33093185D01*
X40628273Y-33100298D01*
X40652659Y-33102700D01*
X40677045Y-33100298D01*
X40700494Y-33093185D01*
X40722105Y-33081634D01*
X40741047Y-33066089D01*
X40749268Y-33057017D01*
X40812396Y-32980096D01*
X40900103Y-32908116D01*
X40992813Y-32858562D01*
X41000165Y-32854632D01*
X41000168Y-32854631D01*
X41108744Y-32821694D01*
X41221660Y-32810573D01*
X41334575Y-32821694D01*
X41443151Y-32854631D01*
X41443154Y-32854632D01*
X41450506Y-32858562D01*
X41543216Y-32908116D01*
X41630924Y-32980096D01*
X41702904Y-33067803D01*
X41746421Y-33149219D01*
X41760035Y-33169594D01*
X41777362Y-33186921D01*
X41797736Y-33200534D01*
X41820375Y-33209912D01*
X41844408Y-33214692D01*
X41868912Y-33214692D01*
X41892945Y-33209912D01*
X41915584Y-33200534D01*
X41935959Y-33186920D01*
X41953286Y-33169593D01*
X41966899Y-33149220D01*
X42010416Y-33067804D01*
X42082396Y-32980096D01*
X42170103Y-32908116D01*
X42262813Y-32858562D01*
X42270165Y-32854632D01*
X42270168Y-32854631D01*
X42378744Y-32821694D01*
X42491660Y-32810573D01*
X42604575Y-32821694D01*
G37*
G36*
X23490949Y-31560916D02*
G01*
X23602134Y-31583032D01*
X23811603Y-31669797D01*
X24000120Y-31795760D01*
X24160440Y-31956080D01*
X24286403Y-32144597D01*
X24356809Y-32314571D01*
X24373168Y-32354067D01*
X24417400Y-32576435D01*
X24417400Y-32803165D01*
X24406381Y-32858562D01*
X24373168Y-33025534D01*
X24286403Y-33235003D01*
X24160440Y-33423520D01*
X24000120Y-33583840D01*
X23811603Y-33709803D01*
X23602134Y-33796568D01*
X23490949Y-33818684D01*
X23379765Y-33840800D01*
X23153035Y-33840800D01*
X23041851Y-33818684D01*
X22930666Y-33796568D01*
X22721197Y-33709803D01*
X22532680Y-33583840D01*
X22372360Y-33423520D01*
X22246397Y-33235003D01*
X22159632Y-33025534D01*
X22126419Y-32858562D01*
X22115400Y-32803165D01*
X22115400Y-32576435D01*
X22159632Y-32354067D01*
X22175992Y-32314571D01*
X22246397Y-32144597D01*
X22372360Y-31956080D01*
X22532680Y-31795760D01*
X22721197Y-31669797D01*
X22930666Y-31583032D01*
X23041851Y-31560916D01*
X23153035Y-31538800D01*
X23379765Y-31538800D01*
X23490949Y-31560916D01*
G37*
G36*
X26638828Y-31744503D02*
G01*
X26793700Y-31808653D01*
X26933081Y-31901785D01*
X27051615Y-32020319D01*
X27144747Y-32159700D01*
X27208897Y-32314572D01*
X27241600Y-32478984D01*
X27241600Y-32646616D01*
X27208897Y-32811028D01*
X27144747Y-32965900D01*
X27051615Y-33105281D01*
X26933081Y-33223815D01*
X26793700Y-33316947D01*
X26638828Y-33381097D01*
X26474416Y-33413800D01*
X26306784Y-33413800D01*
X26142372Y-33381097D01*
X25987500Y-33316947D01*
X25848119Y-33223815D01*
X25729585Y-33105281D01*
X25636453Y-32965900D01*
X25572303Y-32811028D01*
X25539600Y-32646616D01*
X25539600Y-32478984D01*
X25572303Y-32314572D01*
X25636453Y-32159700D01*
X25729585Y-32020319D01*
X25848119Y-31901785D01*
X25987500Y-31808653D01*
X26142372Y-31744503D01*
X26306784Y-31711800D01*
X26474416Y-31711800D01*
X26638828Y-31744503D01*
G37*
G36*
X36798828Y-31744503D02*
G01*
X36953700Y-31808653D01*
X37093081Y-31901785D01*
X37211615Y-32020319D01*
X37304747Y-32159700D01*
X37368897Y-32314572D01*
X37401600Y-32478984D01*
X37401600Y-32646616D01*
X37368897Y-32811028D01*
X37304747Y-32965900D01*
X37211615Y-33105281D01*
X37093081Y-33223815D01*
X36953700Y-33316947D01*
X36798828Y-33381097D01*
X36634416Y-33413800D01*
X36466784Y-33413800D01*
X36302372Y-33381097D01*
X36147500Y-33316947D01*
X36008119Y-33223815D01*
X35889585Y-33105281D01*
X35796453Y-32965900D01*
X35732303Y-32811028D01*
X35699600Y-32646616D01*
X35699600Y-32478984D01*
X35732303Y-32314572D01*
X35796453Y-32159700D01*
X35889585Y-32020319D01*
X36008119Y-31901785D01*
X36147500Y-31808653D01*
X36302372Y-31744503D01*
X36466784Y-31711800D01*
X36634416Y-31711800D01*
X36798828Y-31744503D01*
G37*
G36*
X17975400Y-32412818D02*
G01*
X17977802Y-32437204D01*
X17984915Y-32460653D01*
X17996466Y-32482264D01*
X18012011Y-32501206D01*
X18030953Y-32516751D01*
X18052564Y-32528302D01*
X18076013Y-32535415D01*
X18100399Y-32537817D01*
X18124785Y-32535415D01*
X18148234Y-32528302D01*
X18169845Y-32516751D01*
X18188787Y-32501206D01*
X18204332Y-32482264D01*
X18266409Y-32389360D01*
X18266410Y-32389358D01*
X18343158Y-32312610D01*
X18433404Y-32252310D01*
X18433405Y-32252309D01*
X18533679Y-32210774D01*
X18640130Y-32189600D01*
X18748670Y-32189600D01*
X18855121Y-32210774D01*
X18955395Y-32252309D01*
X18955396Y-32252310D01*
X19045642Y-32312610D01*
X19122390Y-32389358D01*
X19122391Y-32389360D01*
X19182691Y-32479605D01*
X19213916Y-32554989D01*
X19225467Y-32576600D01*
X19241012Y-32595541D01*
X19259954Y-32611087D01*
X19281565Y-32622638D01*
X19305014Y-32629751D01*
X19329400Y-32632153D01*
X19353786Y-32629751D01*
X19377235Y-32622638D01*
X19398846Y-32611087D01*
X19417787Y-32595542D01*
X19433333Y-32576600D01*
X19444884Y-32554989D01*
X19476109Y-32479605D01*
X19536409Y-32389360D01*
X19536410Y-32389358D01*
X19613158Y-32312610D01*
X19703404Y-32252310D01*
X19703405Y-32252309D01*
X19803679Y-32210774D01*
X19910130Y-32189600D01*
X20018670Y-32189600D01*
X20125121Y-32210774D01*
X20225395Y-32252309D01*
X20225396Y-32252310D01*
X20315642Y-32312610D01*
X20392390Y-32389358D01*
X20392391Y-32389360D01*
X20452691Y-32479605D01*
X20494226Y-32579879D01*
X20515400Y-32686330D01*
X20515400Y-32794870D01*
X20494226Y-32901321D01*
X20452691Y-33001595D01*
X20452690Y-33001596D01*
X20392390Y-33091842D01*
X20315642Y-33168590D01*
X20270212Y-33198945D01*
X20225395Y-33228891D01*
X20125121Y-33270426D01*
X20018670Y-33291600D01*
X19910130Y-33291600D01*
X19803679Y-33270426D01*
X19703405Y-33228891D01*
X19658588Y-33198945D01*
X19613158Y-33168590D01*
X19536410Y-33091842D01*
X19476110Y-33001596D01*
X19476109Y-33001595D01*
X19444884Y-32926211D01*
X19433333Y-32904600D01*
X19417788Y-32885659D01*
X19398846Y-32870113D01*
X19377235Y-32858562D01*
X19353786Y-32851449D01*
X19329400Y-32849047D01*
X19305014Y-32851449D01*
X19281565Y-32858562D01*
X19259954Y-32870113D01*
X19241013Y-32885658D01*
X19225467Y-32904600D01*
X19213916Y-32926211D01*
X19182691Y-33001595D01*
X19182690Y-33001596D01*
X19122390Y-33091842D01*
X19045642Y-33168590D01*
X19000212Y-33198945D01*
X18955395Y-33228891D01*
X18855121Y-33270426D01*
X18748670Y-33291600D01*
X18640130Y-33291600D01*
X18533679Y-33270426D01*
X18433405Y-33228891D01*
X18388588Y-33198945D01*
X18343158Y-33168590D01*
X18266410Y-33091842D01*
X18236546Y-33047147D01*
X18204332Y-32998936D01*
X18188786Y-32979994D01*
X18169844Y-32964449D01*
X18148233Y-32952898D01*
X18124785Y-32945785D01*
X18100398Y-32943383D01*
X18076012Y-32945785D01*
X18052563Y-32952898D01*
X18030953Y-32964449D01*
X18012011Y-32979995D01*
X17996466Y-32998937D01*
X17984915Y-33020548D01*
X17977802Y-33043996D01*
X17975400Y-33068382D01*
X17975400Y-33291600D01*
X16873400Y-33291600D01*
X16873400Y-32189600D01*
X17975400Y-32189600D01*
X17975400Y-32412818D01*
G37*
G36*
X28912128Y-28579663D02*
G01*
X29067000Y-28643813D01*
X29206381Y-28736945D01*
X29324915Y-28855479D01*
X29418047Y-28994860D01*
X29482197Y-29149732D01*
X29514900Y-29314144D01*
X29514900Y-29481776D01*
X29482197Y-29646188D01*
X29418047Y-29801060D01*
X29324915Y-29940441D01*
X29206381Y-30058975D01*
X29067000Y-30152107D01*
X28912128Y-30216257D01*
X28747716Y-30248960D01*
X28580084Y-30248960D01*
X28415672Y-30216257D01*
X28260800Y-30152107D01*
X28121419Y-30058975D01*
X28002885Y-29940441D01*
X27909753Y-29801060D01*
X27845603Y-29646188D01*
X27812900Y-29481776D01*
X27812900Y-29314144D01*
X27845603Y-29149732D01*
X27909753Y-28994860D01*
X28002885Y-28855479D01*
X28121419Y-28736945D01*
X28260800Y-28643813D01*
X28415672Y-28579663D01*
X28580084Y-28546960D01*
X28747716Y-28546960D01*
X28912128Y-28579663D01*
G37*
G36*
X16814900Y-30248960D02*
G01*
X15112900Y-30248960D01*
X15112900Y-28546960D01*
X16814900Y-28546960D01*
X16814900Y-30248960D01*
G37*
G36*
X18752128Y-28579663D02*
G01*
X18907000Y-28643813D01*
X19046381Y-28736945D01*
X19164915Y-28855479D01*
X19258047Y-28994860D01*
X19322197Y-29149732D01*
X19354900Y-29314144D01*
X19354900Y-29481776D01*
X19322197Y-29646188D01*
X19258047Y-29801060D01*
X19164915Y-29940441D01*
X19046381Y-30058975D01*
X18907000Y-30152107D01*
X18752128Y-30216257D01*
X18587716Y-30248960D01*
X18420084Y-30248960D01*
X18255672Y-30216257D01*
X18100800Y-30152107D01*
X17961419Y-30058975D01*
X17842885Y-29940441D01*
X17749753Y-29801060D01*
X17685603Y-29646188D01*
X17652900Y-29481776D01*
X17652900Y-29314144D01*
X17685603Y-29149732D01*
X17749753Y-28994860D01*
X17842885Y-28855479D01*
X17961419Y-28736945D01*
X18100800Y-28643813D01*
X18255672Y-28579663D01*
X18420084Y-28546960D01*
X18587716Y-28546960D01*
X18752128Y-28579663D01*
G37*
G36*
X21292128Y-28579663D02*
G01*
X21447000Y-28643813D01*
X21586381Y-28736945D01*
X21704915Y-28855479D01*
X21798047Y-28994860D01*
X21862197Y-29149732D01*
X21894900Y-29314144D01*
X21894900Y-29481776D01*
X21862197Y-29646188D01*
X21798047Y-29801060D01*
X21704915Y-29940441D01*
X21586381Y-30058975D01*
X21447000Y-30152107D01*
X21292128Y-30216257D01*
X21127716Y-30248960D01*
X20960084Y-30248960D01*
X20795672Y-30216257D01*
X20640800Y-30152107D01*
X20501419Y-30058975D01*
X20382885Y-29940441D01*
X20289753Y-29801060D01*
X20225603Y-29646188D01*
X20192900Y-29481776D01*
X20192900Y-29314144D01*
X20225603Y-29149732D01*
X20289753Y-28994860D01*
X20382885Y-28855479D01*
X20501419Y-28736945D01*
X20640800Y-28643813D01*
X20795672Y-28579663D01*
X20960084Y-28546960D01*
X21127716Y-28546960D01*
X21292128Y-28579663D01*
G37*
G36*
X23832128Y-28579663D02*
G01*
X23987000Y-28643813D01*
X24126381Y-28736945D01*
X24244915Y-28855479D01*
X24338047Y-28994860D01*
X24402197Y-29149732D01*
X24434900Y-29314144D01*
X24434900Y-29481776D01*
X24402197Y-29646188D01*
X24338047Y-29801060D01*
X24244915Y-29940441D01*
X24126381Y-30058975D01*
X23987000Y-30152107D01*
X23832128Y-30216257D01*
X23667716Y-30248960D01*
X23500084Y-30248960D01*
X23335672Y-30216257D01*
X23180800Y-30152107D01*
X23041419Y-30058975D01*
X22922885Y-29940441D01*
X22829753Y-29801060D01*
X22765603Y-29646188D01*
X22732900Y-29481776D01*
X22732900Y-29314144D01*
X22765603Y-29149732D01*
X22829753Y-28994860D01*
X22922885Y-28855479D01*
X23041419Y-28736945D01*
X23180800Y-28643813D01*
X23335672Y-28579663D01*
X23500084Y-28546960D01*
X23667716Y-28546960D01*
X23832128Y-28579663D01*
G37*
G36*
X31452128Y-28579663D02*
G01*
X31607000Y-28643813D01*
X31746381Y-28736945D01*
X31864915Y-28855479D01*
X31958047Y-28994860D01*
X32022197Y-29149732D01*
X32054900Y-29314144D01*
X32054900Y-29481776D01*
X32022197Y-29646188D01*
X31958047Y-29801060D01*
X31864915Y-29940441D01*
X31746381Y-30058975D01*
X31607000Y-30152107D01*
X31452128Y-30216257D01*
X31287716Y-30248960D01*
X31120084Y-30248960D01*
X30955672Y-30216257D01*
X30800800Y-30152107D01*
X30661419Y-30058975D01*
X30542885Y-29940441D01*
X30449753Y-29801060D01*
X30385603Y-29646188D01*
X30352900Y-29481776D01*
X30352900Y-29314144D01*
X30385603Y-29149732D01*
X30449753Y-28994860D01*
X30542885Y-28855479D01*
X30661419Y-28736945D01*
X30800800Y-28643813D01*
X30955672Y-28579663D01*
X31120084Y-28546960D01*
X31287716Y-28546960D01*
X31452128Y-28579663D01*
G37*
G36*
X33992128Y-28579663D02*
G01*
X34147000Y-28643813D01*
X34286381Y-28736945D01*
X34404915Y-28855479D01*
X34498047Y-28994860D01*
X34562197Y-29149732D01*
X34594900Y-29314144D01*
X34594900Y-29481776D01*
X34562197Y-29646188D01*
X34498047Y-29801060D01*
X34404915Y-29940441D01*
X34286381Y-30058975D01*
X34147000Y-30152107D01*
X33992128Y-30216257D01*
X33827716Y-30248960D01*
X33660084Y-30248960D01*
X33495672Y-30216257D01*
X33340800Y-30152107D01*
X33201419Y-30058975D01*
X33082885Y-29940441D01*
X32989753Y-29801060D01*
X32925603Y-29646188D01*
X32892900Y-29481776D01*
X32892900Y-29314144D01*
X32925603Y-29149732D01*
X32989753Y-28994860D01*
X33082885Y-28855479D01*
X33201419Y-28736945D01*
X33340800Y-28643813D01*
X33495672Y-28579663D01*
X33660084Y-28546960D01*
X33827716Y-28546960D01*
X33992128Y-28579663D01*
G37*
G36*
X36532128Y-28579663D02*
G01*
X36687000Y-28643813D01*
X36826381Y-28736945D01*
X36944915Y-28855479D01*
X37038047Y-28994860D01*
X37102197Y-29149732D01*
X37134900Y-29314144D01*
X37134900Y-29481776D01*
X37102197Y-29646188D01*
X37038047Y-29801060D01*
X36944915Y-29940441D01*
X36826381Y-30058975D01*
X36687000Y-30152107D01*
X36532128Y-30216257D01*
X36367716Y-30248960D01*
X36200084Y-30248960D01*
X36035672Y-30216257D01*
X35880800Y-30152107D01*
X35741419Y-30058975D01*
X35622885Y-29940441D01*
X35529753Y-29801060D01*
X35465603Y-29646188D01*
X35432900Y-29481776D01*
X35432900Y-29314144D01*
X35465603Y-29149732D01*
X35529753Y-28994860D01*
X35622885Y-28855479D01*
X35741419Y-28736945D01*
X35880800Y-28643813D01*
X36035672Y-28579663D01*
X36200084Y-28546960D01*
X36367716Y-28546960D01*
X36532128Y-28579663D01*
G37*
G36*
X39072128Y-28579663D02*
G01*
X39227000Y-28643813D01*
X39366381Y-28736945D01*
X39484915Y-28855479D01*
X39578047Y-28994860D01*
X39642197Y-29149732D01*
X39674900Y-29314144D01*
X39674900Y-29481776D01*
X39642197Y-29646188D01*
X39578047Y-29801060D01*
X39484915Y-29940441D01*
X39366381Y-30058975D01*
X39227000Y-30152107D01*
X39072128Y-30216257D01*
X38907716Y-30248960D01*
X38740084Y-30248960D01*
X38575672Y-30216257D01*
X38420800Y-30152107D01*
X38281419Y-30058975D01*
X38162885Y-29940441D01*
X38069753Y-29801060D01*
X38005603Y-29646188D01*
X37972900Y-29481776D01*
X37972900Y-29314144D01*
X38005603Y-29149732D01*
X38069753Y-28994860D01*
X38162885Y-28855479D01*
X38281419Y-28736945D01*
X38420800Y-28643813D01*
X38575672Y-28579663D01*
X38740084Y-28546960D01*
X38907716Y-28546960D01*
X39072128Y-28579663D01*
G37*
G36*
X41612128Y-28579663D02*
G01*
X41767000Y-28643813D01*
X41906381Y-28736945D01*
X42024915Y-28855479D01*
X42118047Y-28994860D01*
X42182197Y-29149732D01*
X42214900Y-29314144D01*
X42214900Y-29481776D01*
X42182197Y-29646188D01*
X42118047Y-29801060D01*
X42024915Y-29940441D01*
X41906381Y-30058975D01*
X41767000Y-30152107D01*
X41612128Y-30216257D01*
X41447716Y-30248960D01*
X41280084Y-30248960D01*
X41115672Y-30216257D01*
X40960800Y-30152107D01*
X40821419Y-30058975D01*
X40702885Y-29940441D01*
X40609753Y-29801060D01*
X40545603Y-29646188D01*
X40512900Y-29481776D01*
X40512900Y-29314144D01*
X40545603Y-29149732D01*
X40609753Y-28994860D01*
X40702885Y-28855479D01*
X40821419Y-28736945D01*
X40960800Y-28643813D01*
X41115672Y-28579663D01*
X41280084Y-28546960D01*
X41447716Y-28546960D01*
X41612128Y-28579663D01*
G37*
G36*
X44152128Y-28579663D02*
G01*
X44307000Y-28643813D01*
X44446381Y-28736945D01*
X44564915Y-28855479D01*
X44658047Y-28994860D01*
X44722197Y-29149732D01*
X44754900Y-29314144D01*
X44754900Y-29481776D01*
X44722197Y-29646188D01*
X44658047Y-29801060D01*
X44564915Y-29940441D01*
X44446381Y-30058975D01*
X44307000Y-30152107D01*
X44152128Y-30216257D01*
X43987716Y-30248960D01*
X43820084Y-30248960D01*
X43655672Y-30216257D01*
X43500800Y-30152107D01*
X43361419Y-30058975D01*
X43242885Y-29940441D01*
X43149753Y-29801060D01*
X43085603Y-29646188D01*
X43052900Y-29481776D01*
X43052900Y-29314144D01*
X43085603Y-29149732D01*
X43149753Y-28994860D01*
X43242885Y-28855479D01*
X43361419Y-28736945D01*
X43500800Y-28643813D01*
X43655672Y-28579663D01*
X43820084Y-28546960D01*
X43987716Y-28546960D01*
X44152128Y-28579663D01*
G37*
G36*
X26372128Y-28579663D02*
G01*
X26527000Y-28643813D01*
X26666381Y-28736945D01*
X26784915Y-28855479D01*
X26878047Y-28994860D01*
X26942197Y-29149732D01*
X26974900Y-29314144D01*
X26974900Y-29481776D01*
X26942197Y-29646188D01*
X26878047Y-29801060D01*
X26784915Y-29940441D01*
X26666381Y-30058975D01*
X26527000Y-30152107D01*
X26372128Y-30216257D01*
X26207716Y-30248960D01*
X26040084Y-30248960D01*
X25875672Y-30216257D01*
X25720800Y-30152107D01*
X25581419Y-30058975D01*
X25462885Y-29940441D01*
X25369753Y-29801060D01*
X25305603Y-29646188D01*
X25272900Y-29481776D01*
X25272900Y-29314144D01*
X25305603Y-29149732D01*
X25369753Y-28994860D01*
X25462885Y-28855479D01*
X25581419Y-28736945D01*
X25720800Y-28643813D01*
X25875672Y-28579663D01*
X26040084Y-28546960D01*
X26207716Y-28546960D01*
X26372128Y-28579663D01*
G37*
G36*
X59307500Y-27468600D02*
G01*
X57405500Y-27468600D01*
X57405500Y-25566600D01*
X59307500Y-25566600D01*
X59307500Y-27468600D01*
G37*
G36*
X58633895Y-23063146D02*
G01*
X58806966Y-23134834D01*
X58806967Y-23134835D01*
X58962727Y-23238910D01*
X59095190Y-23371373D01*
X59095191Y-23371375D01*
X59199266Y-23527134D01*
X59270954Y-23700205D01*
X59307500Y-23883933D01*
X59307500Y-24071267D01*
X59270954Y-24254995D01*
X59199266Y-24428066D01*
X59199265Y-24428067D01*
X59095190Y-24583827D01*
X58962727Y-24716290D01*
X58884318Y-24768681D01*
X58806966Y-24820366D01*
X58633895Y-24892054D01*
X58450167Y-24928600D01*
X58262833Y-24928600D01*
X58079105Y-24892054D01*
X57906034Y-24820366D01*
X57828682Y-24768681D01*
X57750273Y-24716290D01*
X57617810Y-24583827D01*
X57513735Y-24428067D01*
X57513734Y-24428066D01*
X57442046Y-24254995D01*
X57405500Y-24071267D01*
X57405500Y-23883933D01*
X57442046Y-23700205D01*
X57513734Y-23527134D01*
X57617809Y-23371375D01*
X57617810Y-23371373D01*
X57750273Y-23238910D01*
X57906033Y-23134835D01*
X57906034Y-23134834D01*
X58079105Y-23063146D01*
X58262833Y-23026600D01*
X58450167Y-23026600D01*
X58633895Y-23063146D01*
G37*
G36*
X51208491Y-20843591D02*
G01*
X51536252Y-20979354D01*
X51831230Y-21176452D01*
X52082088Y-21427310D01*
X52279186Y-21722288D01*
X52414949Y-22050049D01*
X52484160Y-22397996D01*
X52484160Y-22752764D01*
X52414949Y-23100711D01*
X52279186Y-23428472D01*
X52082088Y-23723450D01*
X51831230Y-23974308D01*
X51536252Y-24171406D01*
X51208491Y-24307169D01*
X50860544Y-24376380D01*
X50505776Y-24376380D01*
X50157829Y-24307169D01*
X49830068Y-24171406D01*
X49535090Y-23974308D01*
X49284232Y-23723450D01*
X49087134Y-23428472D01*
X48951371Y-23100711D01*
X48882160Y-22752764D01*
X48882160Y-22397996D01*
X48951371Y-22050049D01*
X49087134Y-21722288D01*
X49284232Y-21427310D01*
X49535090Y-21176452D01*
X49830068Y-20979354D01*
X50157829Y-20843591D01*
X50505776Y-20774380D01*
X50860544Y-20774380D01*
X51208491Y-20843591D01*
G37*
G36*
X56861348Y-16910903D02*
G01*
X57016220Y-16975053D01*
X57155601Y-17068185D01*
X57274135Y-17186719D01*
X57367267Y-17326100D01*
X57431417Y-17480972D01*
X57464120Y-17645384D01*
X57464120Y-17813016D01*
X57431417Y-17977428D01*
X57367267Y-18132300D01*
X57274135Y-18271681D01*
X57155601Y-18390215D01*
X57016220Y-18483347D01*
X56861348Y-18547497D01*
X56696936Y-18580200D01*
X56529304Y-18580200D01*
X56364892Y-18547497D01*
X56210020Y-18483347D01*
X56070639Y-18390215D01*
X55952105Y-18271681D01*
X55858973Y-18132300D01*
X55794823Y-17977428D01*
X55762120Y-17813016D01*
X55762120Y-17645384D01*
X55794823Y-17480972D01*
X55858973Y-17326100D01*
X55952105Y-17186719D01*
X56070639Y-17068185D01*
X56210020Y-16975053D01*
X56364892Y-16910903D01*
X56529304Y-16878200D01*
X56696936Y-16878200D01*
X56861348Y-16910903D01*
G37*
G36*
X46701348Y-16910903D02*
G01*
X46856220Y-16975053D01*
X46995601Y-17068185D01*
X47114135Y-17186719D01*
X47207267Y-17326100D01*
X47271417Y-17480972D01*
X47304120Y-17645384D01*
X47304120Y-17813016D01*
X47271417Y-17977428D01*
X47207267Y-18132300D01*
X47114135Y-18271681D01*
X46995601Y-18390215D01*
X46856220Y-18483347D01*
X46701348Y-18547497D01*
X46536936Y-18580200D01*
X46369304Y-18580200D01*
X46204892Y-18547497D01*
X46050020Y-18483347D01*
X45910639Y-18390215D01*
X45792105Y-18271681D01*
X45698973Y-18132300D01*
X45634823Y-17977428D01*
X45602120Y-17813016D01*
X45602120Y-17645384D01*
X45634823Y-17480972D01*
X45698973Y-17326100D01*
X45792105Y-17186719D01*
X45910639Y-17068185D01*
X46050020Y-16975053D01*
X46204892Y-16910903D01*
X46369304Y-16878200D01*
X46536936Y-16878200D01*
X46701348Y-16910903D01*
G37*
G36*
X59824549Y-13450716D02*
G01*
X59935734Y-13472832D01*
X60145203Y-13559597D01*
X60333720Y-13685560D01*
X60494040Y-13845880D01*
X60620003Y-14034397D01*
X60706768Y-14243866D01*
X60751000Y-14466236D01*
X60751000Y-14692964D01*
X60706768Y-14915334D01*
X60620003Y-15124803D01*
X60494040Y-15313320D01*
X60333720Y-15473640D01*
X60145203Y-15599603D01*
X59935734Y-15686368D01*
X59824549Y-15708484D01*
X59713365Y-15730600D01*
X59486635Y-15730600D01*
X59375451Y-15708484D01*
X59264266Y-15686368D01*
X59054797Y-15599603D01*
X58866280Y-15473640D01*
X58705960Y-15313320D01*
X58579997Y-15124803D01*
X58493232Y-14915334D01*
X58449000Y-14692964D01*
X58449000Y-14466236D01*
X58493232Y-14243866D01*
X58579997Y-14034397D01*
X58705960Y-13845880D01*
X58866280Y-13685560D01*
X59054797Y-13559597D01*
X59264266Y-13472832D01*
X59375451Y-13450716D01*
X59486635Y-13428600D01*
X59713365Y-13428600D01*
X59824549Y-13450716D01*
G37*
G36*
X56861348Y-13771463D02*
G01*
X57016220Y-13835613D01*
X57155601Y-13928745D01*
X57274135Y-14047279D01*
X57367267Y-14186660D01*
X57431417Y-14341532D01*
X57464120Y-14505944D01*
X57464120Y-14673576D01*
X57431417Y-14837988D01*
X57367267Y-14992860D01*
X57274135Y-15132241D01*
X57155601Y-15250775D01*
X57016220Y-15343907D01*
X56861348Y-15408057D01*
X56696936Y-15440760D01*
X56529304Y-15440760D01*
X56364892Y-15408057D01*
X56210020Y-15343907D01*
X56070639Y-15250775D01*
X55952105Y-15132241D01*
X55858973Y-14992860D01*
X55794823Y-14837988D01*
X55762120Y-14673576D01*
X55762120Y-14505944D01*
X55794823Y-14341532D01*
X55858973Y-14186660D01*
X55952105Y-14047279D01*
X56070639Y-13928745D01*
X56210020Y-13835613D01*
X56364892Y-13771463D01*
X56529304Y-13738760D01*
X56696936Y-13738760D01*
X56861348Y-13771463D01*
G37*
G36*
X46701348Y-13771463D02*
G01*
X46856220Y-13835613D01*
X46995601Y-13928745D01*
X47114135Y-14047279D01*
X47207267Y-14186660D01*
X47271417Y-14341532D01*
X47304120Y-14505944D01*
X47304120Y-14673576D01*
X47271417Y-14837988D01*
X47207267Y-14992860D01*
X47114135Y-15132241D01*
X46995601Y-15250775D01*
X46856220Y-15343907D01*
X46701348Y-15408057D01*
X46536936Y-15440760D01*
X46369304Y-15440760D01*
X46204892Y-15408057D01*
X46050020Y-15343907D01*
X45910639Y-15250775D01*
X45792105Y-15132241D01*
X45698973Y-14992860D01*
X45634823Y-14837988D01*
X45602120Y-14673576D01*
X45602120Y-14505944D01*
X45634823Y-14341532D01*
X45698973Y-14186660D01*
X45792105Y-14047279D01*
X45910639Y-13928745D01*
X46050020Y-13835613D01*
X46204892Y-13771463D01*
X46369304Y-13738760D01*
X46536936Y-13738760D01*
X46701348Y-13771463D01*
G37*
G36*
X44152128Y-13339663D02*
G01*
X44307000Y-13403813D01*
X44446381Y-13496945D01*
X44564915Y-13615479D01*
X44658047Y-13754860D01*
X44722197Y-13909732D01*
X44754900Y-14074144D01*
X44754900Y-14241776D01*
X44722197Y-14406188D01*
X44658047Y-14561060D01*
X44564915Y-14700441D01*
X44446381Y-14818975D01*
X44307000Y-14912107D01*
X44152128Y-14976257D01*
X43987716Y-15008960D01*
X43820084Y-15008960D01*
X43655672Y-14976257D01*
X43500800Y-14912107D01*
X43361419Y-14818975D01*
X43242885Y-14700441D01*
X43149753Y-14561060D01*
X43085603Y-14406188D01*
X43052900Y-14241776D01*
X43052900Y-14074144D01*
X43085603Y-13909732D01*
X43149753Y-13754860D01*
X43242885Y-13615479D01*
X43361419Y-13496945D01*
X43500800Y-13403813D01*
X43655672Y-13339663D01*
X43820084Y-13306960D01*
X43987716Y-13306960D01*
X44152128Y-13339663D01*
G37*
G36*
X41612128Y-13339663D02*
G01*
X41767000Y-13403813D01*
X41906381Y-13496945D01*
X42024915Y-13615479D01*
X42118047Y-13754860D01*
X42182197Y-13909732D01*
X42214900Y-14074144D01*
X42214900Y-14241776D01*
X42182197Y-14406188D01*
X42118047Y-14561060D01*
X42024915Y-14700441D01*
X41906381Y-14818975D01*
X41767000Y-14912107D01*
X41612128Y-14976257D01*
X41447716Y-15008960D01*
X41280084Y-15008960D01*
X41115672Y-14976257D01*
X40960800Y-14912107D01*
X40821419Y-14818975D01*
X40702885Y-14700441D01*
X40609753Y-14561060D01*
X40545603Y-14406188D01*
X40512900Y-14241776D01*
X40512900Y-14074144D01*
X40545603Y-13909732D01*
X40609753Y-13754860D01*
X40702885Y-13615479D01*
X40821419Y-13496945D01*
X40960800Y-13403813D01*
X41115672Y-13339663D01*
X41280084Y-13306960D01*
X41447716Y-13306960D01*
X41612128Y-13339663D01*
G37*
G36*
X39072128Y-13339663D02*
G01*
X39227000Y-13403813D01*
X39366381Y-13496945D01*
X39484915Y-13615479D01*
X39578047Y-13754860D01*
X39642197Y-13909732D01*
X39674900Y-14074144D01*
X39674900Y-14241776D01*
X39642197Y-14406188D01*
X39578047Y-14561060D01*
X39484915Y-14700441D01*
X39366381Y-14818975D01*
X39227000Y-14912107D01*
X39072128Y-14976257D01*
X38907716Y-15008960D01*
X38740084Y-15008960D01*
X38575672Y-14976257D01*
X38420800Y-14912107D01*
X38281419Y-14818975D01*
X38162885Y-14700441D01*
X38069753Y-14561060D01*
X38005603Y-14406188D01*
X37972900Y-14241776D01*
X37972900Y-14074144D01*
X38005603Y-13909732D01*
X38069753Y-13754860D01*
X38162885Y-13615479D01*
X38281419Y-13496945D01*
X38420800Y-13403813D01*
X38575672Y-13339663D01*
X38740084Y-13306960D01*
X38907716Y-13306960D01*
X39072128Y-13339663D01*
G37*
G36*
X36532128Y-13339663D02*
G01*
X36687000Y-13403813D01*
X36826381Y-13496945D01*
X36944915Y-13615479D01*
X37038047Y-13754860D01*
X37102197Y-13909732D01*
X37134900Y-14074144D01*
X37134900Y-14241776D01*
X37102197Y-14406188D01*
X37038047Y-14561060D01*
X36944915Y-14700441D01*
X36826381Y-14818975D01*
X36687000Y-14912107D01*
X36532128Y-14976257D01*
X36367716Y-15008960D01*
X36200084Y-15008960D01*
X36035672Y-14976257D01*
X35880800Y-14912107D01*
X35741419Y-14818975D01*
X35622885Y-14700441D01*
X35529753Y-14561060D01*
X35465603Y-14406188D01*
X35432900Y-14241776D01*
X35432900Y-14074144D01*
X35465603Y-13909732D01*
X35529753Y-13754860D01*
X35622885Y-13615479D01*
X35741419Y-13496945D01*
X35880800Y-13403813D01*
X36035672Y-13339663D01*
X36200084Y-13306960D01*
X36367716Y-13306960D01*
X36532128Y-13339663D01*
G37*
G36*
X21292128Y-13339663D02*
G01*
X21447000Y-13403813D01*
X21586381Y-13496945D01*
X21704915Y-13615479D01*
X21798047Y-13754860D01*
X21862197Y-13909732D01*
X21894900Y-14074144D01*
X21894900Y-14241776D01*
X21862197Y-14406188D01*
X21798047Y-14561060D01*
X21704915Y-14700441D01*
X21586381Y-14818975D01*
X21447000Y-14912107D01*
X21292128Y-14976257D01*
X21127716Y-15008960D01*
X20960084Y-15008960D01*
X20795672Y-14976257D01*
X20640800Y-14912107D01*
X20501419Y-14818975D01*
X20382885Y-14700441D01*
X20289753Y-14561060D01*
X20225603Y-14406188D01*
X20192900Y-14241776D01*
X20192900Y-14074144D01*
X20225603Y-13909732D01*
X20289753Y-13754860D01*
X20382885Y-13615479D01*
X20501419Y-13496945D01*
X20640800Y-13403813D01*
X20795672Y-13339663D01*
X20960084Y-13306960D01*
X21127716Y-13306960D01*
X21292128Y-13339663D01*
G37*
G36*
X23832128Y-13339663D02*
G01*
X23987000Y-13403813D01*
X24126381Y-13496945D01*
X24244915Y-13615479D01*
X24338047Y-13754860D01*
X24402197Y-13909732D01*
X24434900Y-14074144D01*
X24434900Y-14241776D01*
X24402197Y-14406188D01*
X24338047Y-14561060D01*
X24244915Y-14700441D01*
X24126381Y-14818975D01*
X23987000Y-14912107D01*
X23832128Y-14976257D01*
X23667716Y-15008960D01*
X23500084Y-15008960D01*
X23335672Y-14976257D01*
X23180800Y-14912107D01*
X23041419Y-14818975D01*
X22922885Y-14700441D01*
X22829753Y-14561060D01*
X22765603Y-14406188D01*
X22732900Y-14241776D01*
X22732900Y-14074144D01*
X22765603Y-13909732D01*
X22829753Y-13754860D01*
X22922885Y-13615479D01*
X23041419Y-13496945D01*
X23180800Y-13403813D01*
X23335672Y-13339663D01*
X23500084Y-13306960D01*
X23667716Y-13306960D01*
X23832128Y-13339663D01*
G37*
G36*
X18752128Y-13339663D02*
G01*
X18907000Y-13403813D01*
X19046381Y-13496945D01*
X19164915Y-13615479D01*
X19258047Y-13754860D01*
X19322197Y-13909732D01*
X19354900Y-14074144D01*
X19354900Y-14241776D01*
X19322197Y-14406188D01*
X19258047Y-14561060D01*
X19164915Y-14700441D01*
X19046381Y-14818975D01*
X18907000Y-14912107D01*
X18752128Y-14976257D01*
X18587716Y-15008960D01*
X18420084Y-15008960D01*
X18255672Y-14976257D01*
X18100800Y-14912107D01*
X17961419Y-14818975D01*
X17842885Y-14700441D01*
X17749753Y-14561060D01*
X17685603Y-14406188D01*
X17652900Y-14241776D01*
X17652900Y-14074144D01*
X17685603Y-13909732D01*
X17749753Y-13754860D01*
X17842885Y-13615479D01*
X17961419Y-13496945D01*
X18100800Y-13403813D01*
X18255672Y-13339663D01*
X18420084Y-13306960D01*
X18587716Y-13306960D01*
X18752128Y-13339663D01*
G37*
G36*
X16212128Y-13339663D02*
G01*
X16367000Y-13403813D01*
X16506381Y-13496945D01*
X16624915Y-13615479D01*
X16718047Y-13754860D01*
X16782197Y-13909732D01*
X16814900Y-14074144D01*
X16814900Y-14241776D01*
X16782197Y-14406188D01*
X16718047Y-14561060D01*
X16624915Y-14700441D01*
X16506381Y-14818975D01*
X16367000Y-14912107D01*
X16212128Y-14976257D01*
X16047716Y-15008960D01*
X15880084Y-15008960D01*
X15715672Y-14976257D01*
X15560800Y-14912107D01*
X15421419Y-14818975D01*
X15302885Y-14700441D01*
X15209753Y-14561060D01*
X15145603Y-14406188D01*
X15112900Y-14241776D01*
X15112900Y-14074144D01*
X15145603Y-13909732D01*
X15209753Y-13754860D01*
X15302885Y-13615479D01*
X15421419Y-13496945D01*
X15560800Y-13403813D01*
X15715672Y-13339663D01*
X15880084Y-13306960D01*
X16047716Y-13306960D01*
X16212128Y-13339663D01*
G37*
G36*
X28912128Y-13339663D02*
G01*
X29067000Y-13403813D01*
X29206381Y-13496945D01*
X29324915Y-13615479D01*
X29418047Y-13754860D01*
X29482197Y-13909732D01*
X29514900Y-14074144D01*
X29514900Y-14241776D01*
X29482197Y-14406188D01*
X29418047Y-14561060D01*
X29324915Y-14700441D01*
X29206381Y-14818975D01*
X29067000Y-14912107D01*
X28912128Y-14976257D01*
X28747716Y-15008960D01*
X28580084Y-15008960D01*
X28415672Y-14976257D01*
X28260800Y-14912107D01*
X28121419Y-14818975D01*
X28002885Y-14700441D01*
X27909753Y-14561060D01*
X27845603Y-14406188D01*
X27812900Y-14241776D01*
X27812900Y-14074144D01*
X27845603Y-13909732D01*
X27909753Y-13754860D01*
X28002885Y-13615479D01*
X28121419Y-13496945D01*
X28260800Y-13403813D01*
X28415672Y-13339663D01*
X28580084Y-13306960D01*
X28747716Y-13306960D01*
X28912128Y-13339663D01*
G37*
G36*
X31452128Y-13339663D02*
G01*
X31607000Y-13403813D01*
X31746381Y-13496945D01*
X31864915Y-13615479D01*
X31958047Y-13754860D01*
X32022197Y-13909732D01*
X32054900Y-14074144D01*
X32054900Y-14241776D01*
X32022197Y-14406188D01*
X31958047Y-14561060D01*
X31864915Y-14700441D01*
X31746381Y-14818975D01*
X31607000Y-14912107D01*
X31452128Y-14976257D01*
X31287716Y-15008960D01*
X31120084Y-15008960D01*
X30955672Y-14976257D01*
X30800800Y-14912107D01*
X30661419Y-14818975D01*
X30542885Y-14700441D01*
X30449753Y-14561060D01*
X30385603Y-14406188D01*
X30352900Y-14241776D01*
X30352900Y-14074144D01*
X30385603Y-13909732D01*
X30449753Y-13754860D01*
X30542885Y-13615479D01*
X30661419Y-13496945D01*
X30800800Y-13403813D01*
X30955672Y-13339663D01*
X31120084Y-13306960D01*
X31287716Y-13306960D01*
X31452128Y-13339663D01*
G37*
G36*
X33992128Y-13339663D02*
G01*
X34147000Y-13403813D01*
X34286381Y-13496945D01*
X34404915Y-13615479D01*
X34498047Y-13754860D01*
X34562197Y-13909732D01*
X34594900Y-14074144D01*
X34594900Y-14241776D01*
X34562197Y-14406188D01*
X34498047Y-14561060D01*
X34404915Y-14700441D01*
X34286381Y-14818975D01*
X34147000Y-14912107D01*
X33992128Y-14976257D01*
X33827716Y-15008960D01*
X33660084Y-15008960D01*
X33495672Y-14976257D01*
X33340800Y-14912107D01*
X33201419Y-14818975D01*
X33082885Y-14700441D01*
X32989753Y-14561060D01*
X32925603Y-14406188D01*
X32892900Y-14241776D01*
X32892900Y-14074144D01*
X32925603Y-13909732D01*
X32989753Y-13754860D01*
X33082885Y-13615479D01*
X33201419Y-13496945D01*
X33340800Y-13403813D01*
X33495672Y-13339663D01*
X33660084Y-13306960D01*
X33827716Y-13306960D01*
X33992128Y-13339663D01*
G37*
G36*
X26372128Y-13339663D02*
G01*
X26527000Y-13403813D01*
X26666381Y-13496945D01*
X26784915Y-13615479D01*
X26878047Y-13754860D01*
X26942197Y-13909732D01*
X26974900Y-14074144D01*
X26974900Y-14241776D01*
X26942197Y-14406188D01*
X26878047Y-14561060D01*
X26784915Y-14700441D01*
X26666381Y-14818975D01*
X26527000Y-14912107D01*
X26372128Y-14976257D01*
X26207716Y-15008960D01*
X26040084Y-15008960D01*
X25875672Y-14976257D01*
X25720800Y-14912107D01*
X25581419Y-14818975D01*
X25462885Y-14700441D01*
X25369753Y-14561060D01*
X25305603Y-14406188D01*
X25272900Y-14241776D01*
X25272900Y-14074144D01*
X25305603Y-13909732D01*
X25369753Y-13754860D01*
X25462885Y-13615479D01*
X25581419Y-13496945D01*
X25720800Y-13403813D01*
X25875672Y-13339663D01*
X26040084Y-13306960D01*
X26207716Y-13306960D01*
X26372128Y-13339663D01*
G37*
M02*
